<?xml version="1.0" standalone="no"?>
<!DOCTYPE svg PUBLIC "-//W3C//DTD SVG 1.1//EN" "http://www.w3.org/Graphics/SVG/1.1/DTD/svg11.dtd" >
<svg xmlns="http://www.w3.org/2000/svg" xmlns:xlink="http://www.w3.org/1999/xlink" version="1.1">
<metadata>
Created by FontForge 20190801 at Sat Jan 26 14:42:01 2019
 By Jimmy Wärting
Dmitry Rastvortsev exclusively for Pari-Match N.V. parimatch.com
</metadata>
<defs>
<font id="Pari-Match-Light" horiz-adv-x="415" >
  <font-face 
    font-family="Pari-Match Light"
    font-weight="300"
    font-style="italic"
    font-stretch="normal"
    units-per-em="1000"
    panose-1="0 0 4 0 0 0 0 0 0 0"
    ascent="800"
    descent="-200"
    x-height="550"
    cap-height="700"
    bbox="-349 -155 2442 897"
    underline-thickness="50"
    underline-position="-100"
    slope="-16"
    unicode-range="U+000D-2265"
  />
<missing-glyph horiz-adv-x="140" 
 />
    <glyph glyph-name="uni04070407.liga" unicode="&#x407;&#x407;" horiz-adv-x="435" 
d="M109 752l29 103h87l-29 -103h-87zM240 752l29 103h87l-29 -103h-87zM368 752l29 103h87l-29 -103h-87zM499 752l29 103h87l-29 -103h-87zM-23 0l200 700h93l-200 -700h-93zM195 0l200 700h92l-200 -700h-92z" />
    <glyph glyph-name="uni04570457.liga" unicode="&#x457;&#x457;" horiz-adv-x="410" 
d="M59 602l29 103h87l-29 -103h-87zM190 602l29 103h87l-29 -103h-87zM318 602l29 103h87l-29 -103h-87zM449 602l29 103h87l-29 -103h-87zM-23 0l157 550h89l-157 -550h-89zM182 0l157 550h89l-157 -550h-89z" />
    <glyph glyph-name=".notdef" horiz-adv-x="140" 
 />
    <glyph glyph-name=".null" horiz-adv-x="300" 
 />
    <glyph glyph-name="CR" unicode="&#xd;" horiz-adv-x="370" 
 />
    <glyph glyph-name="space" unicode=" " horiz-adv-x="140" 
 />
    <glyph glyph-name="A" unicode="A" horiz-adv-x="409" 
d="M-53 0l301 700h160l-97 -700h-91l22 147h-140l-61 -147h-94zM136 233h120l58 382h-19z" />
    <glyph glyph-name="Aacute" unicode="&#xc1;" horiz-adv-x="405" 
d="M298 740l73 115h95l-95 -115h-73zM-53 0l301 700h156l-97 -700h-93l22 147h-132l-61 -147h-96zM137 233h114l59 382h-15z" />
    <glyph glyph-name="Abreve" unicode="&#x102;" horiz-adv-x="405" 
d="M330 753c-60 0 -82 40 -66 95l1 7h67l-4 -16c-7 -23 0 -31 19 -31h20c17 0 25 9 32 33l4 14h67l-4 -14c-17 -63 -48 -88 -101 -88h-35zM-53 0l301 700h156l-97 -700h-93l22 147h-132l-61 -147h-96zM137 233h114l59 382h-15z" />
    <glyph glyph-name="Acircumflex" unicode="&#xc2;" horiz-adv-x="405" 
d="M207 740l129 115h70l61 -115h-75l-30 67l-67 -67h-88zM-53 0l301 700h156l-97 -700h-93l22 147h-132l-61 -147h-96zM137 233h114l59 382h-15z" />
    <glyph glyph-name="Adieresis" unicode="&#xc4;" horiz-adv-x="405" 
d="M233 752l29 103h87l-29 -103h-87zM364 752l29 103h87l-29 -103h-87zM-53 0l301 700h156l-97 -700h-93l22 147h-132l-61 -147h-96zM137 233h114l59 382h-15z" />
    <glyph glyph-name="Agrave" unicode="&#xc0;" horiz-adv-x="405" 
d="M285 740l-71 115h92l56 -115h-77zM-53 0l301 700h156l-97 -700h-93l22 147h-132l-61 -147h-96zM137 233h114l59 382h-15z" />
    <glyph glyph-name="Amacron" unicode="&#x100;" horiz-adv-x="405" 
d="M248 760l21 73h193l-21 -73h-193zM-53 0l301 700h156l-97 -700h-93l22 147h-132l-61 -147h-96zM137 233h114l59 382h-15z" />
    <glyph glyph-name="Aogonek" unicode="&#x104;" horiz-adv-x="405" 
d="M-53 0l301 700h156l-97 -700h-93l22 147h-132l-61 -147h-96zM137 233h114l59 382h-15zM216 -155v120h51l29 -120h-80z" />
    <glyph glyph-name="Aring" unicode="&#xc5;" horiz-adv-x="405" 
d="M334 726c-49 0 -86 37 -86 86c0 48 37 85 86 85c47 0 84 -37 84 -85c0 -49 -37 -86 -84 -86zM334 772c22 0 39 18 39 40c0 23 -17 40 -39 40c-23 0 -41 -17 -41 -40c0 -22 18 -40 41 -40zM-53 0l301 700h156l-97 -700h-93l22 147h-132l-61 -147h-96zM137 233h114l59 382
h-15z" />
    <glyph glyph-name="Atilde" unicode="&#xc3;" horiz-adv-x="405" 
d="M227 748l17 57c11 38 29 60 59 60c18 0 29 -6 49 -19l26 -19c13 -11 17 -15 21 -15s8 3 9 9l13 44h62l-16 -58c-11 -36 -30 -59 -61 -59c-19 0 -27 5 -48 19l-30 24c-10 7 -11 9 -16 9c-4 0 -9 -4 -10 -10l-13 -42h-62zM-53 0l301 700h156l-97 -700h-93l22 147h-132
l-61 -147h-96zM137 233h114l59 382h-15z" />
    <glyph glyph-name="AE" unicode="&#xc6;" horiz-adv-x="527" 
d="M-53 0l314 700h343l-25 -86h-140l-65 -221h130l-25 -86h-131l-65 -221h140l-25 -86h-232l44 147h-103l-63 -147h-97zM141 233h94l113 382h-43z" />
    <glyph glyph-name="B" unicode="B" horiz-adv-x="413" 
d="M-21 0l201 700h148c103 0 143 -70 115 -167l-19 -65c-19 -67 -47 -104 -90 -122c33 -26 43 -70 27 -124l-19 -67c-31 -110 -84 -155 -175 -155h-188zM182 390h76c40 0 59 21 73 69l27 90c12 45 -3 68 -48 68h-63zM95 84h83c39 0 58 20 71 69l26 89c13 45 -3 68 -49 68
h-67z" />
    <glyph glyph-name="C" unicode="C" horiz-adv-x="419" 
d="M132 -5c-102 0 -141 71 -113 168l110 387c32 111 84 155 174 155h35c102 0 141 -71 113 -167l-30 -108h-91l34 121c13 45 -2 68 -46 68h-26c-38 0 -56 -20 -70 -69l-115 -401c-13 -45 3 -68 46 -68h28c39 0 57 21 71 69l33 115h91l-32 -115c-32 -111 -84 -155 -175 -155
h-37z" />
    <glyph glyph-name="Cacute" unicode="&#x106;" horiz-adv-x="419" 
d="M300 740l73 115h95l-95 -115h-73zM132 -5c-102 0 -141 71 -113 168l110 387c32 111 84 155 174 155h35c102 0 141 -71 113 -167l-30 -108h-91l34 121c13 45 -2 68 -46 68h-26c-38 0 -56 -20 -70 -69l-115 -401c-13 -45 3 -68 46 -68h28c39 0 57 21 71 69l33 115h91
l-32 -115c-32 -111 -84 -155 -175 -155h-37z" />
    <glyph glyph-name="Ccaron" unicode="&#x10c;" horiz-adv-x="419" 
d="M306 740l-62 115h75l31 -66l66 66h88l-128 -115h-70zM132 -5c-102 0 -141 71 -113 168l110 387c32 111 84 155 174 155h35c102 0 141 -71 113 -167l-30 -108h-91l34 121c13 45 -2 68 -46 68h-26c-38 0 -56 -20 -70 -69l-115 -401c-13 -45 3 -68 46 -68h28
c39 0 57 21 71 69l33 115h91l-32 -115c-32 -111 -84 -155 -175 -155h-37z" />
    <glyph glyph-name="Ccedilla" unicode="&#xc7;" horiz-adv-x="419" 
d="M132 -5c-102 0 -141 71 -113 168l110 387c32 111 84 155 174 155h35c102 0 141 -71 113 -167l-30 -108h-91l34 121c13 45 -2 68 -46 68h-26c-38 0 -56 -20 -70 -69l-115 -401c-13 -45 3 -68 46 -68h28c39 0 57 21 71 69l33 115h91l-32 -115c-32 -111 -84 -155 -175 -155
h-37zM78 -155l26 120h54v-120h-80z" />
    <glyph glyph-name="Cdotaccent" unicode="&#x10a;" horiz-adv-x="419" 
d="M298 752l29 103h93l-29 -103h-93zM132 -5c-102 0 -141 71 -113 168l110 387c32 111 84 155 174 155h35c102 0 141 -71 113 -167l-30 -108h-91l34 121c13 45 -2 68 -46 68h-26c-38 0 -56 -20 -70 -69l-115 -401c-13 -45 3 -68 46 -68h28c39 0 57 21 71 69l33 115h91
l-32 -115c-32 -111 -84 -155 -175 -155h-37z" />
    <glyph glyph-name="D" unicode="D" horiz-adv-x="440" 
d="M-23 0l200 700h173c103 0 142 -71 114 -167l-108 -378c-31 -111 -84 -155 -175 -155h-204zM94 86h98c39 0 58 21 72 69l112 391c13 45 -3 68 -47 68h-84z" />
    <glyph glyph-name="Eth" unicode="&#xd0;" horiz-adv-x="479" 
d="M-13 0l91 317h-55l19 67h55l90 316h173c103 0 142 -71 114 -167l-108 -378c-31 -111 -84 -155 -175 -155h-204zM104 86h98c39 0 58 21 72 69l112 391c13 45 -3 68 -47 68h-84l-66 -230h81l-19 -67h-81z" />
    <glyph glyph-name="Dcaron" unicode="&#x10e;" horiz-adv-x="440" 
d="M289 740l-62 115h75l31 -66l66 66h88l-128 -115h-70zM-23 0l200 700h173c103 0 142 -71 114 -167l-108 -378c-31 -111 -84 -155 -175 -155h-204zM94 86h98c39 0 58 21 72 69l112 391c13 45 -3 68 -47 68h-84z" />
    <glyph glyph-name="Dcroat" unicode="&#x110;" horiz-adv-x="479" 
d="M-13 0l91 317h-55l19 67h55l90 316h173c103 0 142 -71 114 -167l-108 -378c-31 -111 -84 -155 -175 -155h-204zM104 86h98c39 0 58 21 72 69l112 391c13 45 -3 68 -47 68h-84l-66 -230h81l-19 -67h-81z" />
    <glyph glyph-name="E" unicode="E" horiz-adv-x="349" 
d="M-23 0l200 700h249l-25 -86h-157l-63 -221h148l-25 -86h-148l-63 -221h157l-24 -86h-249z" />
    <glyph glyph-name="Eacute" unicode="&#xc9;" horiz-adv-x="349" 
d="M269 740l72 115h96l-95 -115h-73zM-23 0l200 700h249l-25 -86h-157l-63 -221h148l-25 -86h-148l-63 -221h157l-24 -86h-249z" />
    <glyph glyph-name="Ecaron" unicode="&#x11a;" horiz-adv-x="349" 
d="M275 740l-63 115h76l31 -66l66 66h87l-127 -115h-70zM-23 0l200 700h249l-25 -86h-157l-63 -221h148l-25 -86h-148l-63 -221h157l-24 -86h-249z" />
    <glyph glyph-name="Ecircumflex" unicode="&#xca;" horiz-adv-x="349" 
d="M178 740l129 115h70l61 -115h-76l-30 67l-67 -67h-87zM-23 0l200 700h249l-25 -86h-157l-63 -221h148l-25 -86h-148l-63 -221h157l-24 -86h-249z" />
    <glyph glyph-name="Edieresis" unicode="&#xcb;" horiz-adv-x="349" 
d="M204 752l29 103h87l-29 -103h-87zM335 752l29 103h87l-29 -103h-87zM-23 0l200 700h249l-25 -86h-157l-63 -221h148l-25 -86h-148l-63 -221h157l-24 -86h-249z" />
    <glyph glyph-name="Edotaccent" unicode="&#x116;" horiz-adv-x="349" 
d="M266 752l29 103h93l-29 -103h-93zM-23 0l200 700h249l-25 -86h-157l-63 -221h148l-25 -86h-148l-63 -221h157l-24 -86h-249z" />
    <glyph glyph-name="Egrave" unicode="&#xc8;" horiz-adv-x="349" 
d="M256 740l-71 115h91l57 -115h-77zM-23 0l200 700h249l-25 -86h-157l-63 -221h148l-25 -86h-148l-63 -221h157l-24 -86h-249z" />
    <glyph glyph-name="Emacron" unicode="&#x112;" horiz-adv-x="349" 
d="M218 760l21 73h193l-21 -73h-193zM-23 0l200 700h249l-25 -86h-157l-63 -221h148l-25 -86h-148l-63 -221h157l-24 -86h-249z" />
    <glyph glyph-name="Eogonek" unicode="&#x118;" horiz-adv-x="349" 
d="M-23 0l200 700h249l-25 -86h-157l-63 -221h148l-25 -86h-148l-63 -221h157l-24 -86h-249zM125 -155v120h52l29 -120h-81z" />
    <glyph glyph-name="F" unicode="F" horiz-adv-x="334" 
d="M-23 0l200 700h254l-25 -86h-161l-63 -221h132l-25 -86h-132l-87 -307h-93z" />
    <glyph glyph-name="G" unicode="G" horiz-adv-x="431" 
d="M124 -5c-97 0 -133 71 -105 168l110 387c32 111 84 155 174 155h35c102 0 141 -71 113 -167l-23 -81h-90l28 94c13 45 -3 68 -46 68h-28c-38 0 -56 -20 -70 -69l-115 -401c-13 -45 -1 -68 36 -68h33c37 0 65 21 82 71l34 118h-70l24 84h159l-101 -354h-58v57
c-29 -40 -68 -62 -114 -62h-8z" />
    <glyph glyph-name="Gbreve" unicode="&#x11e;" horiz-adv-x="431" 
d="M323 753c-60 0 -82 40 -66 95l1 7h67l-4 -16c-7 -23 0 -31 19 -31h20c17 0 25 9 32 33l4 14h67l-4 -14c-17 -63 -48 -88 -101 -88h-35zM124 -5c-97 0 -133 71 -105 168l110 387c32 111 84 155 174 155h35c102 0 141 -71 113 -167l-23 -81h-90l28 94c13 45 -3 68 -46 68
h-28c-38 0 -56 -20 -70 -69l-115 -401c-13 -45 -1 -68 36 -68h33c37 0 65 21 82 71l34 118h-70l24 84h159l-101 -354h-58v57c-29 -40 -68 -62 -114 -62h-8z" />
    <glyph glyph-name="uni0122" unicode="&#x122;" horiz-adv-x="431" 
d="M124 -5c-97 0 -133 71 -105 168l110 387c32 111 84 155 174 155h35c102 0 141 -71 113 -167l-23 -81h-90l28 94c13 45 -3 68 -46 68h-28c-38 0 -56 -20 -70 -69l-115 -401c-13 -45 -1 -68 36 -68h33c37 0 65 21 82 71l34 118h-70l24 84h159l-101 -354h-58v57
c-29 -40 -68 -62 -114 -62h-8zM90 -155v120h80l-26 -120h-54z" />
    <glyph glyph-name="Gdotaccent" unicode="&#x120;" horiz-adv-x="431" 
d="M289 752l29 103h93l-29 -103h-93zM124 -5c-97 0 -133 71 -105 168l110 387c32 111 84 155 174 155h35c102 0 141 -71 113 -167l-23 -81h-90l28 94c13 45 -3 68 -46 68h-28c-38 0 -56 -20 -70 -69l-115 -401c-13 -45 -1 -68 36 -68h33c37 0 65 21 82 71l34 118h-70l24 84
h159l-101 -354h-58v57c-29 -40 -68 -62 -114 -62h-8z" />
    <glyph glyph-name="H" unicode="H" horiz-adv-x="445" 
d="M-23 0l200 700h93l-88 -307h150l88 307h92l-200 -700h-92l87 307h-150l-87 -307h-93z" />
    <glyph glyph-name="Hbar" unicode="&#x126;" horiz-adv-x="469" 
d="M-13 0l151 527h-55l19 67h55l30 106h93l-31 -106h150l31 106h92l-30 -106h58l-19 -67h-58l-151 -527h-92l87 307h-150l-87 -307h-93zM192 393h150l38 134h-150z" />
    <glyph glyph-name="I" unicode="I" horiz-adv-x="203" 
d="M-23 0l200 700h93l-200 -700h-93z" />
    <glyph glyph-name="Iacute" unicode="&#xcd;" horiz-adv-x="203" 
d="M195 740l72 115h96l-95 -115h-73zM-23 0l200 700h93l-200 -700h-93z" />
    <glyph glyph-name="Icircumflex" unicode="&#xce;" horiz-adv-x="203" 
d="M104 740l129 115h70l61 -115h-76l-30 67l-67 -67h-87zM-23 0l200 700h93l-200 -700h-93z" />
    <glyph glyph-name="Idieresis" unicode="&#xcf;" horiz-adv-x="203" 
d="M130 752l29 103h87l-29 -103h-87zM261 752l29 103h87l-29 -103h-87zM-23 0l200 700h93l-200 -700h-93z" />
    <glyph glyph-name="Idotaccent" unicode="&#x130;" horiz-adv-x="203" 
d="M192 752l29 103h93l-29 -103h-93zM-23 0l200 700h93l-200 -700h-93z" />
    <glyph glyph-name="Igrave" unicode="&#xcc;" horiz-adv-x="203" 
d="M182 740l-71 115h91l57 -115h-77zM-23 0l200 700h93l-200 -700h-93z" />
    <glyph glyph-name="Imacron" unicode="&#x12a;" horiz-adv-x="203" 
d="M144 760l21 73h193l-21 -73h-193zM-23 0l200 700h93l-200 -700h-93z" />
    <glyph glyph-name="Iogonek" unicode="&#x12e;" horiz-adv-x="203" 
d="M-23 0l200 700h93l-200 -700h-93zM-31 -155v120h52l29 -120h-81z" />
    <glyph glyph-name="J" unicode="J" horiz-adv-x="369" 
d="M88 -5c-91 0 -127 69 -100 163l37 127h87l-40 -141c-13 -44 -2 -63 36 -63h15c32 0 50 22 62 64l158 555h93l-159 -555c-29 -106 -81 -150 -164 -150h-25z" />
    <glyph glyph-name="K" unicode="K" horiz-adv-x="417" 
d="M-23 0l207 700h92l-90 -307h52l181 307h96l-204 -342l5 -358h-91l-1 307h-64l-90 -307h-93z" />
    <glyph glyph-name="uni0136" unicode="&#x136;" horiz-adv-x="417" 
d="M-23 0l207 700h92l-90 -307h52l181 307h96l-204 -342l5 -358h-91l-1 307h-64l-90 -307h-93zM92 -155v120h80l-26 -120h-54z" />
    <glyph glyph-name="L" unicode="L" horiz-adv-x="326" 
d="M-23 0l200 700h93l-176 -614h163l-25 -86h-255z" />
    <glyph glyph-name="Lacute" unicode="&#x139;" horiz-adv-x="326" 
d="M197 740l73 115h95l-95 -115h-73zM-23 0l200 700h93l-176 -614h163l-25 -86h-255z" />
    <glyph glyph-name="Lcaron" unicode="&#x13d;" horiz-adv-x="326" 
d="M-23 0l207 700h92l-181 -614h162l-25 -86h-255zM296 550l44 150h88l-75 -150h-57z" />
    <glyph glyph-name="uni013B" unicode="&#x13b;" horiz-adv-x="326" 
d="M-23 0l200 700h93l-176 -614h163l-25 -86h-255zM58 -155v120h80l-26 -120h-54z" />
    <glyph glyph-name="Lslash" unicode="&#x141;" horiz-adv-x="326" 
d="M-23 0l71 247l-65 -32l25 85l64 32l105 368h93l-90 -315l152 76l-24 -84l-152 -76l-62 -215h163l-25 -86h-255z" />
    <glyph glyph-name="M" unicode="M" horiz-adv-x="567" 
d="M-18 0l200 700h84l21 -411l247 411h95l-200 -700h-88l66 231l76 243h-5l-215 -358h-42l-18 357h-5l-62 -242l-66 -231h-88z" />
    <glyph glyph-name="N" unicode="N" horiz-adv-x="460" 
d="M-18 0l200 700h85l32 -480h5l64 249l66 231h88l-200 -700h-85l-32 481h-5l-64 -250l-66 -231h-88z" />
    <glyph glyph-name="Nacute" unicode="&#x143;" horiz-adv-x="460" 
d="M319 740l73 115h95l-95 -115h-73zM-18 0l200 700h85l32 -480h5l64 249l66 231h88l-200 -700h-85l-32 481h-5l-64 -250l-66 -231h-88z" />
    <glyph glyph-name="Ncaron" unicode="&#x147;" horiz-adv-x="460" 
d="M325 740l-62 115h75l31 -66l66 66h88l-128 -115h-70zM-18 0l200 700h85l32 -480h5l64 249l66 231h88l-200 -700h-85l-32 481h-5l-64 -250l-66 -231h-88z" />
    <glyph glyph-name="uni0145" unicode="&#x145;" horiz-adv-x="460" 
d="M-18 0l200 700h85l32 -480h5l64 249l66 231h88l-200 -700h-85l-32 481h-5l-64 -250l-66 -231h-88zM103 -155v120h80l-26 -120h-54z" />
    <glyph glyph-name="Eng" unicode="&#x14a;" horiz-adv-x="461" 
d="M120 -155l23 82h35c26 0 37 13 47 44l11 41l-31 469h-5l-64 -250l-66 -231h-88l200 700h85l32 -480h5l64 249l66 231h88l-209 -730c-25 -87 -67 -125 -142 -125h-51z" />
    <glyph glyph-name="Ntilde" unicode="&#xd1;" horiz-adv-x="460" 
d="M248 748l17 57c11 38 29 60 59 60c18 0 29 -6 49 -19l26 -19c13 -11 17 -15 21 -15s8 3 9 9l13 44h62l-16 -58c-11 -36 -30 -59 -61 -59c-19 0 -27 5 -48 19l-30 24c-10 7 -11 9 -16 9c-4 0 -9 -4 -10 -10l-13 -42h-62zM-18 0l200 700h85l32 -480h5l64 249l66 231h88
l-200 -700h-85l-32 481h-5l-64 -250l-66 -231h-88z" />
    <glyph glyph-name="O" unicode="O" horiz-adv-x="441" 
d="M134 -5c-103 0 -143 71 -115 168l110 387c32 111 84 155 175 155h47c103 0 142 -71 115 -167l-111 -388c-31 -111 -84 -155 -175 -155h-46zM155 81h36c39 0 58 21 72 69l114 401c13 45 -3 68 -47 68h-37c-39 0 -57 -20 -71 -69l-115 -401c-13 -45 3 -68 48 -68z" />
    <glyph glyph-name="Oacute" unicode="&#xd3;" horiz-adv-x="441" 
d="M316 740l72 115h96l-95 -115h-73zM134 -5c-103 0 -143 71 -115 168l110 387c32 111 84 155 175 155h47c103 0 142 -71 115 -167l-111 -388c-31 -111 -84 -155 -175 -155h-46zM155 81h36c39 0 58 21 72 69l114 401c13 45 -3 68 -47 68h-37c-39 0 -57 -20 -71 -69
l-115 -401c-13 -45 3 -68 48 -68z" />
    <glyph glyph-name="Ocircumflex" unicode="&#xd4;" horiz-adv-x="441" 
d="M225 740l129 115h70l61 -115h-76l-30 67l-67 -67h-87zM134 -5c-103 0 -143 71 -115 168l110 387c32 111 84 155 175 155h47c103 0 142 -71 115 -167l-111 -388c-31 -111 -84 -155 -175 -155h-46zM155 81h36c39 0 58 21 72 69l114 401c13 45 -3 68 -47 68h-37
c-39 0 -57 -20 -71 -69l-115 -401c-13 -45 3 -68 48 -68z" />
    <glyph glyph-name="Odieresis" unicode="&#xd6;" horiz-adv-x="441" 
d="M251 752l29 103h87l-29 -103h-87zM382 752l29 103h87l-29 -103h-87zM134 -5c-103 0 -143 71 -115 168l110 387c32 111 84 155 175 155h47c103 0 142 -71 115 -167l-111 -388c-31 -111 -84 -155 -175 -155h-46zM155 81h36c39 0 58 21 72 69l114 401c13 45 -3 68 -47 68
h-37c-39 0 -57 -20 -71 -69l-115 -401c-13 -45 3 -68 48 -68z" />
    <glyph glyph-name="Ograve" unicode="&#xd2;" horiz-adv-x="441" 
d="M303 740l-71 115h91l57 -115h-77zM134 -5c-103 0 -143 71 -115 168l110 387c32 111 84 155 175 155h47c103 0 142 -71 115 -167l-111 -388c-31 -111 -84 -155 -175 -155h-46zM155 81h36c39 0 58 21 72 69l114 401c13 45 -3 68 -47 68h-37c-39 0 -57 -20 -71 -69
l-115 -401c-13 -45 3 -68 48 -68z" />
    <glyph glyph-name="Ohungarumlaut" unicode="&#x150;" horiz-adv-x="441" 
d="M242 740l72 115h96l-95 -115h-73zM368 740l72 115h96l-95 -115h-73zM134 -5c-103 0 -143 71 -115 168l110 387c32 111 84 155 175 155h47c103 0 142 -71 115 -167l-111 -388c-31 -111 -84 -155 -175 -155h-46zM155 81h36c39 0 58 21 72 69l114 401c13 45 -3 68 -47 68
h-37c-39 0 -57 -20 -71 -69l-115 -401c-13 -45 3 -68 48 -68z" />
    <glyph glyph-name="Omacron" unicode="&#x14c;" horiz-adv-x="441" 
d="M265 760l21 73h193l-21 -73h-193zM134 -5c-103 0 -143 71 -115 168l110 387c32 111 84 155 175 155h47c103 0 142 -71 115 -167l-111 -388c-31 -111 -84 -155 -175 -155h-46zM155 81h36c39 0 58 21 72 69l114 401c13 45 -3 68 -47 68h-37c-39 0 -57 -20 -71 -69
l-115 -401c-13 -45 3 -68 48 -68z" />
    <glyph glyph-name="Oslash" unicode="&#xd8;" horiz-adv-x="441" 
d="M538 701l-65 -89c3 -22 1 -47 -7 -74l-111 -388c-31 -111 -84 -155 -175 -155h-46c-39 0 -69 11 -90 29l-17 -24h-81l66 89c-3 22 -1 47 7 74l110 387c32 111 84 155 175 155h47c38 0 68 -10 89 -28l17 24h81zM139 260l240 335c-7 16 -23 24 -49 24h-37
c-39 0 -57 -20 -71 -69zM346 442l-240 -335c5 -17 23 -26 49 -26h36c39 0 58 21 72 69z" />
    <glyph glyph-name="Otilde" unicode="&#xd5;" horiz-adv-x="441" 
d="M245 748l17 57c10 38 28 60 59 60c18 0 29 -6 49 -19l25 -19c14 -11 18 -15 21 -15c4 0 8 3 10 9l12 44h62l-16 -58c-11 -36 -30 -59 -60 -59c-19 0 -28 5 -48 19l-31 24c-9 7 -11 9 -15 9s-9 -4 -11 -10l-12 -42h-62zM134 -5c-103 0 -143 71 -115 168l110 387
c32 111 84 155 175 155h47c103 0 142 -71 115 -167l-111 -388c-31 -111 -84 -155 -175 -155h-46zM155 81h36c39 0 58 21 72 69l114 401c13 45 -3 68 -47 68h-37c-39 0 -57 -20 -71 -69l-115 -401c-13 -45 3 -68 48 -68z" />
    <glyph glyph-name="OE" unicode="&#x152;" horiz-adv-x="560" 
d="M135 0c-103 0 -143 71 -115 168l108 377c32 111 84 155 175 155h334l-25 -86h-147l-63 -221h138l-25 -86h-138l-63 -221h147l-24 -86h-302zM156 86h67l151 528h-82c-39 0 -58 -20 -71 -69l-113 -391c-12 -45 3 -68 48 -68z" />
    <glyph glyph-name="P" unicode="P" horiz-adv-x="411" 
d="M-23 0l200 700h156c103 0 143 -71 115 -167l-27 -95c-32 -111 -84 -155 -175 -155h-95l-81 -283h-93zM175 369h82c39 0 58 21 71 69l32 108c12 45 -3 68 -48 68h-67z" />
    <glyph glyph-name="Thorn" unicode="&#xde;" horiz-adv-x="445" 
d="M-23 0l200 700h93l-41 -141h65c103 0 143 -72 115 -168l-27 -94c-32 -111 -84 -155 -175 -155h-97l-40 -142h-93zM135 228h83c39 0 58 20 71 69l32 108c13 45 -3 68 -48 68h-68z" />
    <glyph glyph-name="Q" unicode="Q" horiz-adv-x="440" 
d="M121 -100v95c-93 6 -129 75 -102 168l110 387c32 111 84 155 175 155h47c103 0 142 -71 115 -167l-111 -388c-28 -100 -74 -145 -149 -154v-96h-85zM155 81h36c39 0 58 21 72 69l114 401c13 45 -3 68 -47 68h-37c-39 0 -57 -20 -71 -69l-115 -401c-13 -45 3 -68 48 -68z
" />
    <glyph glyph-name="R" unicode="R" horiz-adv-x="421" 
d="M-23 0l200 700h154c103 0 143 -71 115 -167l-27 -93c-23 -79 -58 -125 -109 -144l3 -296h-90l-1 285h-71l-81 -285h-93zM175 369h80c39 0 58 21 71 69l32 110c13 45 -3 68 -47 68h-65z" />
    <glyph glyph-name="Racute" unicode="&#x154;" horiz-adv-x="421" 
d="M267 740l73 115h95l-95 -115h-73zM-23 0l200 700h154c103 0 143 -71 115 -167l-27 -93c-23 -79 -58 -125 -109 -144l3 -296h-90l-1 285h-71l-81 -285h-93zM175 369h80c39 0 58 21 71 69l32 110c13 45 -3 68 -47 68h-65z" />
    <glyph glyph-name="Rcaron" unicode="&#x158;" horiz-adv-x="421" 
d="M273 740l-62 115h75l31 -66l66 66h88l-128 -115h-70zM-23 0l200 700h154c103 0 143 -71 115 -167l-27 -93c-23 -79 -58 -125 -109 -144l3 -296h-90l-1 285h-71l-81 -285h-93zM175 369h80c39 0 58 21 71 69l32 110c13 45 -3 68 -47 68h-65z" />
    <glyph glyph-name="uni0156" unicode="&#x156;" horiz-adv-x="421" 
d="M-23 0l200 700h154c103 0 143 -71 115 -167l-27 -93c-23 -79 -58 -125 -109 -144l3 -296h-90l-1 285h-71l-81 -285h-93zM175 369h80c39 0 58 21 71 69l32 110c13 45 -3 68 -47 68h-65zM95 -155v120h80l-26 -120h-54z" />
    <glyph glyph-name="S" unicode="S" horiz-adv-x="391" 
d="M112 -5c-103 0 -138 71 -109 168l25 84h91l-30 -101c-12 -42 1 -65 41 -65h29c37 0 56 21 70 69l7 26c10 36 9 69 -13 98l-83 105c-34 44 -41 100 -26 152l7 27c29 100 85 147 169 147h29c98 0 135 -71 107 -166l-24 -81h-92l30 99c11 38 -1 62 -38 62h-23
c-34 0 -54 -22 -66 -65l-8 -25c-12 -41 -14 -71 10 -101l81 -106c37 -48 45 -105 30 -154l-6 -20c-32 -109 -85 -153 -173 -153h-35z" />
    <glyph glyph-name="Sacute" unicode="&#x15a;" horiz-adv-x="391" 
d="M276 740l72 115h96l-95 -115h-73zM112 -5c-103 0 -138 71 -109 168l25 84h91l-30 -101c-12 -42 1 -65 41 -65h29c37 0 56 21 70 69l7 26c10 36 9 69 -13 98l-83 105c-34 44 -41 100 -26 152l7 27c29 100 85 147 169 147h29c98 0 135 -71 107 -166l-24 -81h-92l30 99
c11 38 -1 62 -38 62h-23c-34 0 -54 -22 -66 -65l-8 -25c-12 -41 -14 -71 10 -101l81 -106c37 -48 45 -105 30 -154l-6 -20c-32 -109 -85 -153 -173 -153h-35z" />
    <glyph glyph-name="Scaron" unicode="&#x160;" horiz-adv-x="391" 
d="M282 740l-63 115h76l31 -66l66 66h87l-127 -115h-70zM112 -5c-103 0 -138 71 -109 168l25 84h91l-30 -101c-12 -42 1 -65 41 -65h29c37 0 56 21 70 69l7 26c10 36 9 69 -13 98l-83 105c-34 44 -41 100 -26 152l7 27c29 100 85 147 169 147h29c98 0 135 -71 107 -166
l-24 -81h-92l30 99c11 38 -1 62 -38 62h-23c-34 0 -54 -22 -66 -65l-8 -25c-12 -41 -14 -71 10 -101l81 -106c37 -48 45 -105 30 -154l-6 -20c-32 -109 -85 -153 -173 -153h-35z" />
    <glyph glyph-name="Scedilla" unicode="&#x15e;" horiz-adv-x="391" 
d="M112 -5c-103 0 -138 71 -109 168l25 84h91l-30 -101c-12 -42 1 -65 41 -65h29c37 0 56 21 70 69l7 26c10 36 9 69 -13 98l-83 105c-34 44 -41 100 -26 152l7 27c29 100 85 147 169 147h29c98 0 135 -71 107 -166l-24 -81h-92l30 99c11 38 -1 62 -38 62h-23
c-34 0 -54 -22 -66 -65l-8 -25c-12 -41 -14 -71 10 -101l81 -106c37 -48 45 -105 30 -154l-6 -20c-32 -109 -85 -153 -173 -153h-35zM75 -155l26 120h54v-120h-80z" />
    <glyph glyph-name="uni0218" unicode="&#x218;" horiz-adv-x="391" 
d="M112 -5c-103 0 -138 71 -109 168l25 84h91l-30 -101c-12 -42 1 -65 41 -65h29c37 0 56 21 70 69l7 26c10 36 9 69 -13 98l-83 105c-34 44 -41 100 -26 152l7 27c29 100 85 147 169 147h29c98 0 135 -71 107 -166l-24 -81h-92l30 99c11 38 -1 62 -38 62h-23
c-34 0 -54 -22 -66 -65l-8 -25c-12 -41 -14 -71 10 -101l81 -106c37 -48 45 -105 30 -154l-6 -20c-32 -109 -85 -153 -173 -153h-35zM81 -155v120h80l-26 -120h-54z" />
    <glyph glyph-name="uni1E9E" unicode="&#x1e9e;" horiz-adv-x="514" 
d="M-23 0l156 545c32 111 84 155 175 155h275l-20 -71l-195 -219c104 2 138 -66 112 -157l-29 -103c-32 -111 -85 -155 -167 -155h-9c-97 0 -132 69 -106 163l17 58h85l-22 -77c-11 -38 1 -58 36 -58h10c31 0 51 21 65 69l33 115c13 45 -3 68 -37 68h-115l19 65l192 216
h-158c-39 0 -58 -20 -72 -69l-156 -545h-89z" />
    <glyph glyph-name="T" unicode="T" horiz-adv-x="361" 
d="M59 0l175 614h-119l25 86h330l-24 -86h-119l-176 -614h-92z" />
    <glyph glyph-name="Tbar" unicode="&#x166;" horiz-adv-x="395" 
d="M59 0l90 317h-86l19 67h86l66 230h-119l25 86h330l-24 -86h-119l-66 -230h88l-19 -67h-88l-91 -317h-92z" />
    <glyph glyph-name="Tcaron" unicode="&#x164;" horiz-adv-x="361" 
d="M282 740l-62 115h75l31 -66l66 66h88l-128 -115h-70zM59 0l175 614h-119l25 86h330l-24 -86h-119l-176 -614h-92z" />
    <glyph glyph-name="uni0162" unicode="&#x162;" horiz-adv-x="361" 
d="M59 0l175 614h-119l25 86h330l-24 -86h-119l-176 -614h-92zM29 -155l26 120h54v-120h-80z" />
    <glyph glyph-name="uni021A" unicode="&#x21a;" horiz-adv-x="361" 
d="M59 0l175 614h-119l25 86h330l-24 -86h-119l-176 -614h-92zM49 -155v120h80l-26 -120h-54z" />
    <glyph glyph-name="U" unicode="U" horiz-adv-x="448" 
d="M139 -5c-103 0 -143 71 -115 168l153 537h93l-158 -551c-13 -45 4 -68 48 -68h34c39 0 57 21 71 69l157 550h92l-157 -550c-31 -111 -83 -155 -174 -155h-44z" />
    <glyph glyph-name="Uacute" unicode="&#xda;" horiz-adv-x="448" 
d="M317 740l72 115h96l-95 -115h-73zM139 -5c-103 0 -143 71 -115 168l153 537h93l-158 -551c-13 -45 4 -68 48 -68h34c39 0 57 21 71 69l157 550h92l-157 -550c-31 -111 -83 -155 -174 -155h-44z" />
    <glyph glyph-name="Ucircumflex" unicode="&#xdb;" horiz-adv-x="448" 
d="M226 740l129 115h70l61 -115h-76l-30 67l-67 -67h-87zM139 -5c-103 0 -143 71 -115 168l153 537h93l-158 -551c-13 -45 4 -68 48 -68h34c39 0 57 21 71 69l157 550h92l-157 -550c-31 -111 -83 -155 -174 -155h-44z" />
    <glyph glyph-name="Udieresis" unicode="&#xdc;" horiz-adv-x="448" 
d="M252 752l29 103h87l-29 -103h-87zM383 752l29 103h87l-29 -103h-87zM139 -5c-103 0 -143 71 -115 168l153 537h93l-158 -551c-13 -45 4 -68 48 -68h34c39 0 57 21 71 69l157 550h92l-157 -550c-31 -111 -83 -155 -174 -155h-44z" />
    <glyph glyph-name="Ugrave" unicode="&#xd9;" horiz-adv-x="448" 
d="M304 740l-71 115h91l57 -115h-77zM139 -5c-103 0 -143 71 -115 168l153 537h93l-158 -551c-13 -45 4 -68 48 -68h34c39 0 57 21 71 69l157 550h92l-157 -550c-31 -111 -83 -155 -174 -155h-44z" />
    <glyph glyph-name="Uhungarumlaut" unicode="&#x170;" horiz-adv-x="448" 
d="M243 740l72 115h96l-95 -115h-73zM369 740l72 115h96l-95 -115h-73zM139 -5c-103 0 -143 71 -115 168l153 537h93l-158 -551c-13 -45 4 -68 48 -68h34c39 0 57 21 71 69l157 550h92l-157 -550c-31 -111 -83 -155 -174 -155h-44z" />
    <glyph glyph-name="Umacron" unicode="&#x16a;" horiz-adv-x="448" 
d="M266 760l21 73h193l-21 -73h-193zM139 -5c-103 0 -143 71 -115 168l153 537h93l-158 -551c-13 -45 4 -68 48 -68h34c39 0 57 21 71 69l157 550h92l-157 -550c-31 -111 -83 -155 -174 -155h-44z" />
    <glyph glyph-name="Uogonek" unicode="&#x172;" horiz-adv-x="448" 
d="M139 -5c-103 0 -143 71 -115 168l153 537h93l-158 -551c-13 -45 4 -68 48 -68h34c39 0 57 21 71 69l157 550h92l-157 -550c-31 -111 -83 -155 -174 -155h-44zM141 -155v120h51l29 -120h-80z" />
    <glyph glyph-name="Uring" unicode="&#x16e;" horiz-adv-x="448" 
d="M353 726c-49 0 -86 37 -86 86c0 48 37 85 86 85c47 0 84 -37 84 -85c0 -49 -37 -86 -84 -86zM353 772c22 0 39 18 39 40c0 23 -17 40 -39 40c-23 0 -41 -17 -41 -40c0 -22 18 -40 41 -40zM139 -5c-103 0 -143 71 -115 168l153 537h93l-158 -551c-13 -45 4 -68 48 -68h34
c39 0 57 21 71 69l157 550h92l-157 -550c-31 -111 -83 -155 -174 -155h-44z" />
    <glyph glyph-name="V" unicode="V" horiz-adv-x="412" 
d="M65 0l89 700h94l-52 -355l-36 -224h3l256 579h97l-324 -700h-127z" />
    <glyph glyph-name="W" unicode="W" horiz-adv-x="623" 
d="M68 0l84 700h92l-44 -324l-32 -215h3l195 441h72l-29 -312l-13 -129l36 90l189 449h94l-304 -700h-100l40 405h-3l-175 -405h-105z" />
    <glyph glyph-name="Wacute" unicode="&#x1e82;" horiz-adv-x="623" 
d="M406 740l72 115h96l-95 -115h-73zM68 0l84 700h92l-44 -324l-32 -215h3l195 441h72l-29 -312l-13 -129l36 90l189 449h94l-304 -700h-100l40 405h-3l-175 -405h-105z" />
    <glyph glyph-name="Wcircumflex" unicode="&#x174;" horiz-adv-x="623" 
d="M315 740l129 115h70l61 -115h-76l-30 67l-67 -67h-87zM68 0l84 700h92l-44 -324l-32 -215h3l195 441h72l-29 -312l-13 -129l36 90l189 449h94l-304 -700h-100l40 405h-3l-175 -405h-105z" />
    <glyph glyph-name="Wdieresis" unicode="&#x1e84;" horiz-adv-x="623" 
d="M341 752l29 103h87l-29 -103h-87zM472 752l29 103h87l-29 -103h-87zM68 0l84 700h92l-44 -324l-32 -215h3l195 441h72l-29 -312l-13 -129l36 90l189 449h94l-304 -700h-100l40 405h-3l-175 -405h-105z" />
    <glyph glyph-name="Wgrave" unicode="&#x1e80;" horiz-adv-x="623" 
d="M393 740l-71 115h91l57 -115h-77zM68 0l84 700h92l-44 -324l-32 -215h3l195 441h72l-29 -312l-13 -129l36 90l189 449h94l-304 -700h-100l40 405h-3l-175 -405h-105z" />
    <glyph glyph-name="X" unicode="X" horiz-adv-x="421" 
d="M-62 0l243 371l-37 329h92l18 -252h3l154 252h101l-231 -352l37 -348h-91l-21 256h-3l-159 -256h-106z" />
    <glyph glyph-name="Y" unicode="Y" horiz-adv-x="394" 
d="M76 0l72 252l-8 448h91l-2 -169l-9 -168h3l184 337h100l-266 -446l-72 -254h-93z" />
    <glyph glyph-name="Yacute" unicode="&#xdd;" horiz-adv-x="394" 
d="M290 740l73 115h95l-95 -115h-73zM76 0l72 252l-8 448h91l-2 -169l-9 -168h3l184 337h100l-266 -446l-72 -254h-93z" />
    <glyph glyph-name="Ycircumflex" unicode="&#x176;" horiz-adv-x="394" 
d="M199 740l129 115h70l61 -115h-75l-30 67l-67 -67h-88zM76 0l72 252l-8 448h91l-2 -169l-9 -168h3l184 337h100l-266 -446l-72 -254h-93z" />
    <glyph glyph-name="Ydieresis" unicode="&#x178;" horiz-adv-x="394" 
d="M225 752l29 103h87l-29 -103h-87zM356 752l29 103h87l-29 -103h-87zM76 0l72 252l-8 448h91l-2 -169l-9 -168h3l184 337h100l-266 -446l-72 -254h-93z" />
    <glyph glyph-name="Ygrave" unicode="&#x1ef2;" horiz-adv-x="394" 
d="M277 740l-71 115h92l56 -115h-77zM76 0l72 252l-8 448h91l-2 -169l-9 -168h3l184 337h100l-266 -446l-72 -254h-93z" />
    <glyph glyph-name="Z" unicode="Z" horiz-adv-x="368" 
d="M-54 0l20 71l357 543h-193l25 86h298l-20 -71l-357 -543h211l-25 -86h-316z" />
    <glyph glyph-name="Zacute" unicode="&#x179;" horiz-adv-x="368" 
d="M269 740l72 115h96l-95 -115h-73zM-54 0l20 71l357 543h-193l25 86h298l-20 -71l-357 -543h211l-25 -86h-316z" />
    <glyph glyph-name="Zcaron" unicode="&#x17d;" horiz-adv-x="368" 
d="M275 740l-63 115h76l31 -66l66 66h87l-127 -115h-70zM-54 0l20 71l357 543h-193l25 86h298l-20 -71l-357 -543h211l-25 -86h-316z" />
    <glyph glyph-name="Zdotaccent" unicode="&#x17b;" horiz-adv-x="368" 
d="M266 752l29 103h93l-29 -103h-93zM-54 0l20 71l357 543h-193l25 86h298l-20 -71l-357 -543h211l-25 -86h-316z" />
    <glyph glyph-name="a" unicode="a" horiz-adv-x="371" 
d="M76 -5c-78 0 -107 61 -83 146l6 23c27 91 68 113 138 138l98 35c13 5 21 14 24 26l18 60c10 38 -1 57 -37 57h-19c-32 0 -48 -17 -60 -57l-17 -61h-81l17 58c27 94 73 135 152 135h29c86 0 124 -57 99 -146l-117 -409h-60v51c-30 -36 -66 -56 -98 -56h-9zM109 76h24
c30 0 51 23 62 60l37 131l-85 -33c-39 -15 -51 -37 -61 -70l-9 -32c-11 -38 0 -56 32 -56z" />
    <glyph glyph-name="aacute" unicode="&#xe1;" horiz-adv-x="371" 
d="M220 590l72 115h96l-95 -115h-73zM76 -5c-78 0 -107 61 -83 146l6 23c27 91 68 113 138 138l98 35c13 5 21 14 24 26l18 60c10 38 -1 57 -37 57h-19c-32 0 -48 -17 -60 -57l-17 -61h-81l17 58c27 94 73 135 152 135h29c86 0 124 -57 99 -146l-117 -409h-60v51
c-30 -36 -66 -56 -98 -56h-9zM109 76h24c30 0 51 23 62 60l37 131l-85 -33c-39 -15 -51 -37 -61 -70l-9 -32c-11 -38 0 -56 32 -56z" />
    <glyph glyph-name="abreve" unicode="&#x103;" horiz-adv-x="371" 
d="M251 603c-59 0 -82 40 -66 95l2 7h66l-4 -16c-6 -23 1 -31 20 -31h20c17 0 25 9 31 33l4 14h68l-4 -14c-17 -63 -49 -88 -102 -88h-35zM76 -5c-78 0 -107 61 -83 146l6 23c27 91 68 113 138 138l98 35c13 5 21 14 24 26l18 60c10 38 -1 57 -37 57h-19
c-32 0 -48 -17 -60 -57l-17 -61h-81l17 58c27 94 73 135 152 135h29c86 0 124 -57 99 -146l-117 -409h-60v51c-30 -36 -66 -56 -98 -56h-9zM109 76h24c30 0 51 23 62 60l37 131l-85 -33c-39 -15 -51 -37 -61 -70l-9 -32c-11 -38 0 -56 32 -56z" />
    <glyph glyph-name="acircumflex" unicode="&#xe2;" horiz-adv-x="371" 
d="M129 590l129 115h70l61 -115h-76l-30 67l-67 -67h-87zM76 -5c-78 0 -107 61 -83 146l6 23c27 91 68 113 138 138l98 35c13 5 21 14 24 26l18 60c10 38 -1 57 -37 57h-19c-32 0 -48 -17 -60 -57l-17 -61h-81l17 58c27 94 73 135 152 135h29c86 0 124 -57 99 -146
l-117 -409h-60v51c-30 -36 -66 -56 -98 -56h-9zM109 76h24c30 0 51 23 62 60l37 131l-85 -33c-39 -15 -51 -37 -61 -70l-9 -32c-11 -38 0 -56 32 -56z" />
    <glyph glyph-name="adieresis" unicode="&#xe4;" horiz-adv-x="371" 
d="M155 602l29 103h87l-29 -103h-87zM286 602l29 103h87l-29 -103h-87zM76 -5c-78 0 -107 61 -83 146l6 23c27 91 68 113 138 138l98 35c13 5 21 14 24 26l18 60c10 38 -1 57 -37 57h-19c-32 0 -48 -17 -60 -57l-17 -61h-81l17 58c27 94 73 135 152 135h29
c86 0 124 -57 99 -146l-117 -409h-60v51c-30 -36 -66 -56 -98 -56h-9zM109 76h24c30 0 51 23 62 60l37 131l-85 -33c-39 -15 -51 -37 -61 -70l-9 -32c-11 -38 0 -56 32 -56z" />
    <glyph glyph-name="agrave" unicode="&#xe0;" horiz-adv-x="371" 
d="M207 590l-71 115h91l57 -115h-77zM76 -5c-78 0 -107 61 -83 146l6 23c27 91 68 113 138 138l98 35c13 5 21 14 24 26l18 60c10 38 -1 57 -37 57h-19c-32 0 -48 -17 -60 -57l-17 -61h-81l17 58c27 94 73 135 152 135h29c86 0 124 -57 99 -146l-117 -409h-60v51
c-30 -36 -66 -56 -98 -56h-9zM109 76h24c30 0 51 23 62 60l37 131l-85 -33c-39 -15 -51 -37 -61 -70l-9 -32c-11 -38 0 -56 32 -56z" />
    <glyph glyph-name="amacron" unicode="&#x101;" horiz-adv-x="371" 
d="M169 610l21 73h193l-21 -73h-193zM76 -5c-78 0 -107 61 -83 146l6 23c27 91 68 113 138 138l98 35c13 5 21 14 24 26l18 60c10 38 -1 57 -37 57h-19c-32 0 -48 -17 -60 -57l-17 -61h-81l17 58c27 94 73 135 152 135h29c86 0 124 -57 99 -146l-117 -409h-60v51
c-30 -36 -66 -56 -98 -56h-9zM109 76h24c30 0 51 23 62 60l37 131l-85 -33c-39 -15 -51 -37 -61 -70l-9 -32c-11 -38 0 -56 32 -56z" />
    <glyph glyph-name="aogonek" unicode="&#x105;" horiz-adv-x="371" 
d="M76 -5c-78 0 -107 61 -83 146l6 23c27 91 68 113 138 138l98 35c13 5 21 14 24 26l18 60c10 38 -1 57 -37 57h-19c-32 0 -48 -17 -60 -57l-17 -61h-81l17 58c27 94 73 135 152 135h29c86 0 124 -57 99 -146l-117 -409h-60v51c-30 -36 -66 -56 -98 -56h-9zM109 76h24
c30 0 51 23 62 60l37 131l-85 -33c-39 -15 -51 -37 -61 -70l-9 -32c-11 -38 0 -56 32 -56zM184 -155v120h52l29 -120h-81z" />
    <glyph glyph-name="aring" unicode="&#xe5;" horiz-adv-x="371" 
d="M266 576c-49 0 -86 37 -86 86c0 48 37 85 86 85c47 0 84 -37 84 -85c0 -49 -37 -86 -84 -86zM266 622c22 0 39 18 39 40c0 23 -17 40 -39 40c-23 0 -41 -17 -41 -40c0 -22 18 -40 41 -40zM76 -5c-78 0 -107 61 -83 146l6 23c27 91 68 113 138 138l98 35c13 5 21 14 24 26
l18 60c10 38 -1 57 -37 57h-19c-32 0 -48 -17 -60 -57l-17 -61h-81l17 58c27 94 73 135 152 135h29c86 0 124 -57 99 -146l-117 -409h-60v51c-30 -36 -66 -56 -98 -56h-9zM109 76h24c30 0 51 23 62 60l37 131l-85 -33c-39 -15 -51 -37 -61 -70l-9 -32c-11 -38 0 -56 32 -56z
" />
    <glyph glyph-name="atilde" unicode="&#xe3;" horiz-adv-x="371" 
d="M149 598l17 57c10 38 28 60 59 60c18 0 29 -6 49 -19l25 -19c14 -11 18 -15 21 -15c4 0 8 3 10 9l12 44h62l-16 -58c-11 -36 -30 -59 -60 -59c-19 0 -28 5 -48 19l-31 24c-9 7 -11 9 -15 9s-9 -4 -11 -10l-12 -42h-62zM76 -5c-78 0 -107 61 -83 146l6 23
c27 91 68 113 138 138l98 35c13 5 21 14 24 26l18 60c10 38 -1 57 -37 57h-19c-32 0 -48 -17 -60 -57l-17 -61h-81l17 58c27 94 73 135 152 135h29c86 0 124 -57 99 -146l-117 -409h-60v51c-30 -36 -66 -56 -98 -56h-9zM109 76h24c30 0 51 23 62 60l37 131l-85 -33
c-39 -15 -51 -37 -61 -70l-9 -32c-11 -38 0 -56 32 -56z" />
    <glyph glyph-name="ae" unicode="&#xe6;" horiz-adv-x="560" 
d="M76 -5c-78 0 -107 61 -83 146l6 23c27 91 68 113 138 138l93 35c13 5 21 14 24 26l18 60c10 38 1 57 -32 57h-19c-32 0 -48 -17 -60 -57l-17 -61h-81l17 58c27 94 73 135 152 135h24c39 0 65 -18 74 -51c25 33 58 51 95 51h32c83 0 120 -58 95 -146l-47 -164h-198
l-33 -116c-11 -36 0 -54 33 -54h23c29 0 43 17 55 57l14 48h86l-14 -49c-27 -95 -72 -136 -149 -136h-21c-52 0 -86 24 -96 65c-32 -42 -71 -65 -110 -65h-19zM327 316h110l30 105c11 36 0 54 -32 54h-23c-30 0 -44 -16 -56 -57zM109 76h24c27 0 46 23 57 60l37 131l-80 -33
c-39 -15 -51 -37 -61 -70l-9 -32c-11 -38 0 -56 32 -56z" />
    <glyph glyph-name="b" unicode="b" horiz-adv-x="402" 
d="M157 -5c-46 0 -74 25 -88 61l-36 -56h-61l202 705h89l-57 -200c28 33 59 50 89 50h10c78 0 113 -58 88 -146l-79 -278c-25 -89 -71 -136 -149 -136h-8zM138 77h29c32 0 48 17 59 57l80 283c11 38 -2 56 -39 56h-28c-32 0 -49 -22 -59 -57l-81 -282c-11 -38 2 -57 39 -57z
" />
    <glyph glyph-name="c" unicode="c" horiz-adv-x="383" 
d="M107 -5c-86 0 -125 58 -100 146l80 279c27 94 74 135 154 135h37c84 0 122 -58 97 -146l-22 -79h-87l25 89c11 38 -2 56 -38 56h-19c-32 0 -47 -16 -58 -57l-82 -286c-11 -38 1 -57 38 -57h20c32 0 47 17 58 57l24 83h87l-24 -84c-27 -95 -73 -136 -153 -136h-37z" />
    <glyph glyph-name="cacute" unicode="&#x107;" horiz-adv-x="383" 
d="M218 590l72 115h96l-95 -115h-73zM107 -5c-86 0 -125 58 -100 146l80 279c27 94 74 135 154 135h37c84 0 122 -58 97 -146l-22 -79h-87l25 89c11 38 -2 56 -38 56h-19c-32 0 -47 -16 -58 -57l-82 -286c-11 -38 1 -57 38 -57h20c32 0 47 17 58 57l24 83h87l-24 -84
c-27 -95 -73 -136 -153 -136h-37z" />
    <glyph glyph-name="ccaron" unicode="&#x10d;" horiz-adv-x="383" 
d="M224 590l-63 115h76l31 -66l66 66h87l-127 -115h-70zM107 -5c-86 0 -125 58 -100 146l80 279c27 94 74 135 154 135h37c84 0 122 -58 97 -146l-22 -79h-87l25 89c11 38 -2 56 -38 56h-19c-32 0 -47 -16 -58 -57l-82 -286c-11 -38 1 -57 38 -57h20c32 0 47 17 58 57l24 83
h87l-24 -84c-27 -95 -73 -136 -153 -136h-37z" />
    <glyph glyph-name="ccedilla" unicode="&#xe7;" horiz-adv-x="383" 
d="M107 -5c-86 0 -125 58 -100 146l80 279c27 94 74 135 154 135h37c84 0 122 -58 97 -146l-22 -79h-87l25 89c11 38 -2 56 -38 56h-19c-32 0 -47 -16 -58 -57l-82 -286c-11 -38 1 -57 38 -57h20c32 0 47 17 58 57l24 83h87l-24 -84c-27 -95 -73 -136 -153 -136h-37z
M75 -155l26 120h54v-120h-80z" />
    <glyph glyph-name="cdotaccent" unicode="&#x10b;" horiz-adv-x="383" 
d="M215 602l29 103h93l-29 -103h-93zM107 -5c-86 0 -125 58 -100 146l80 279c27 94 74 135 154 135h37c84 0 122 -58 97 -146l-22 -79h-87l25 89c11 38 -2 56 -38 56h-19c-32 0 -47 -16 -58 -57l-82 -286c-11 -38 1 -57 38 -57h20c32 0 47 17 58 57l24 83h87l-24 -84
c-27 -95 -73 -136 -153 -136h-37z" />
    <glyph glyph-name="d" unicode="d" horiz-adv-x="401" 
d="M97 -5c-78 0 -115 58 -90 146l81 279c25 88 71 135 149 135h9c42 0 67 -20 81 -50l57 200h89l-201 -705h-61v52c-31 -38 -67 -57 -104 -57h-10zM134 77h28c32 0 49 22 59 57l81 283c11 38 -2 56 -39 56h-29c-32 0 -47 -16 -58 -57l-81 -282c-11 -38 2 -57 39 -57z" />
    <glyph glyph-name="eth" unicode="&#xf0;" horiz-adv-x="395" 
d="M108 -5c-86 0 -126 58 -101 146l70 242c25 89 71 136 147 136h5c38 0 67 -26 92 -60l6 4l-45 126l-124 -49l19 68l86 34l-22 63h82l12 -36l113 44l-19 -68l-76 -30l28 -85c17 -50 13 -106 0 -152l-71 -247c-28 -95 -74 -136 -154 -136h-48zM131 75h31c32 0 47 17 59 57
l71 250c11 37 -7 55 -36 55h-32c-32 0 -48 -17 -59 -57l-72 -250c-10 -37 2 -55 38 -55z" />
    <glyph glyph-name="dcaron" unicode="&#x10f;" horiz-adv-x="487" 
d="M97 -5c-78 0 -115 58 -90 146l81 279c25 88 71 135 149 135h9c42 0 67 -20 81 -50l57 200h89l-201 -705h-61v52c-31 -38 -67 -57 -104 -57h-10zM482 555l42 150h88l-73 -150h-57zM134 77h28c32 0 49 22 59 57l81 283c11 38 -2 56 -39 56h-29c-32 0 -47 -16 -58 -57
l-81 -282c-11 -38 2 -57 39 -57z" />
    <glyph glyph-name="dcroat" unicode="&#x111;" horiz-adv-x="400" 
d="M96 -5c-78 0 -114 58 -87 146l77 259c26 88 72 135 150 135h9c41 0 67 -20 81 -50l27 92h-110l19 67h111l18 61h89l-18 -61h52l-19 -67h-53l-170 -577h-61v52c-31 -38 -68 -57 -104 -57h-11zM134 77h28c32 0 50 22 61 57l77 263c11 38 -1 56 -38 56h-29
c-32 0 -47 -16 -59 -57l-78 -262c-11 -38 1 -57 38 -57z" />
    <glyph glyph-name="e" unicode="e" horiz-adv-x="379" 
d="M107 -5c-86 0 -125 58 -100 146l80 279c27 94 74 135 154 135h37c84 0 122 -58 97 -146l-47 -164h-203l-33 -116c-11 -36 1 -54 36 -54h22c32 0 46 17 58 57l14 48h86l-14 -49c-27 -95 -72 -136 -151 -136h-36zM145 316h115l30 105c11 36 -1 54 -35 54h-23
c-31 0 -46 -16 -58 -57z" />
    <glyph glyph-name="eacute" unicode="&#xe9;" horiz-adv-x="379" 
d="M224 590l73 115h95l-95 -115h-73zM107 -5c-86 0 -125 58 -100 146l80 279c27 94 74 135 154 135h37c84 0 122 -58 97 -146l-47 -164h-203l-33 -116c-11 -36 1 -54 36 -54h22c32 0 46 17 58 57l14 48h86l-14 -49c-27 -95 -72 -136 -151 -136h-36zM145 316h115l30 105
c11 36 -1 54 -35 54h-23c-31 0 -46 -16 -58 -57z" />
    <glyph glyph-name="ecaron" unicode="&#x11b;" horiz-adv-x="379" 
d="M230 590l-62 115h75l31 -66l66 66h88l-128 -115h-70zM107 -5c-86 0 -125 58 -100 146l80 279c27 94 74 135 154 135h37c84 0 122 -58 97 -146l-47 -164h-203l-33 -116c-11 -36 1 -54 36 -54h22c32 0 46 17 58 57l14 48h86l-14 -49c-27 -95 -72 -136 -151 -136h-36z
M145 316h115l30 105c11 36 -1 54 -35 54h-23c-31 0 -46 -16 -58 -57z" />
    <glyph glyph-name="ecircumflex" unicode="&#xea;" horiz-adv-x="379" 
d="M133 590l129 115h70l61 -115h-75l-30 67l-67 -67h-88zM107 -5c-86 0 -125 58 -100 146l80 279c27 94 74 135 154 135h37c84 0 122 -58 97 -146l-47 -164h-203l-33 -116c-11 -36 1 -54 36 -54h22c32 0 46 17 58 57l14 48h86l-14 -49c-27 -95 -72 -136 -151 -136h-36z
M145 316h115l30 105c11 36 -1 54 -35 54h-23c-31 0 -46 -16 -58 -57z" />
    <glyph glyph-name="edieresis" unicode="&#xeb;" horiz-adv-x="379" 
d="M159 602l29 103h87l-29 -103h-87zM290 602l29 103h87l-29 -103h-87zM107 -5c-86 0 -125 58 -100 146l80 279c27 94 74 135 154 135h37c84 0 122 -58 97 -146l-47 -164h-203l-33 -116c-11 -36 1 -54 36 -54h22c32 0 46 17 58 57l14 48h86l-14 -49
c-27 -95 -72 -136 -151 -136h-36zM145 316h115l30 105c11 36 -1 54 -35 54h-23c-31 0 -46 -16 -58 -57z" />
    <glyph glyph-name="edotaccent" unicode="&#x117;" horiz-adv-x="379" 
d="M222 602l29 103h93l-29 -103h-93zM107 -5c-86 0 -125 58 -100 146l80 279c27 94 74 135 154 135h37c84 0 122 -58 97 -146l-47 -164h-203l-33 -116c-11 -36 1 -54 36 -54h22c32 0 46 17 58 57l14 48h86l-14 -49c-27 -95 -72 -136 -151 -136h-36zM145 316h115l30 105
c11 36 -1 54 -35 54h-23c-31 0 -46 -16 -58 -57z" />
    <glyph glyph-name="egrave" unicode="&#xe8;" horiz-adv-x="379" 
d="M211 590l-71 115h92l56 -115h-77zM107 -5c-86 0 -125 58 -100 146l80 279c27 94 74 135 154 135h37c84 0 122 -58 97 -146l-47 -164h-203l-33 -116c-11 -36 1 -54 36 -54h22c32 0 46 17 58 57l14 48h86l-14 -49c-27 -95 -72 -136 -151 -136h-36zM145 316h115l30 105
c11 36 -1 54 -35 54h-23c-31 0 -46 -16 -58 -57z" />
    <glyph glyph-name="emacron" unicode="&#x113;" horiz-adv-x="379" 
d="M174 610l21 73h193l-21 -73h-193zM107 -5c-86 0 -125 58 -100 146l80 279c27 94 74 135 154 135h37c84 0 122 -58 97 -146l-47 -164h-203l-33 -116c-11 -36 1 -54 36 -54h22c32 0 46 17 58 57l14 48h86l-14 -49c-27 -95 -72 -136 -151 -136h-36zM145 316h115l30 105
c11 36 -1 54 -35 54h-23c-31 0 -46 -16 -58 -57z" />
    <glyph glyph-name="eogonek" unicode="&#x119;" horiz-adv-x="379" 
d="M107 -5c-86 0 -125 58 -100 146l80 279c27 94 74 135 154 135h37c84 0 122 -58 97 -146l-47 -164h-203l-33 -116c-11 -36 1 -54 36 -54h22c32 0 46 17 58 57l14 48h86l-14 -49c-27 -95 -72 -136 -151 -136h-36zM145 316h115l30 105c11 36 -1 54 -35 54h-23
c-31 0 -46 -16 -58 -57zM131 -155v120h52l29 -120h-81z" />
    <glyph glyph-name="f" unicode="f" horiz-adv-x="281" 
d="M6 0l133 468h-73l23 82h74l7 25c26 93 69 130 147 130h77l-21 -77h-61c-29 0 -42 -14 -53 -51l-7 -27h98l-23 -82h-99l-133 -468h-89z" />
    <glyph glyph-name="g" unicode="g" horiz-adv-x="404" 
d="M65 -155c-82 0 -119 55 -95 140l6 22h85l-10 -33c-9 -33 2 -49 34 -49h34c32 0 47 16 59 57l32 113c-28 -33 -60 -50 -90 -50h-9c-78 0 -114 58 -89 146l65 229c24 88 71 135 149 135h9c46 0 73 -24 87 -60l36 55h61l-163 -570c-27 -94 -73 -135 -154 -135h-47zM147 127
h29c30 0 49 23 61 62l65 228c11 38 -2 56 -39 56h-29c-32 0 -47 -16 -59 -57l-66 -232c-11 -38 1 -57 38 -57z" />
    <glyph glyph-name="gbreve" unicode="&#x11f;" horiz-adv-x="404" 
d="M269 603c-59 0 -82 40 -66 95l2 7h66l-4 -16c-6 -23 1 -31 20 -31h20c17 0 25 9 31 33l4 14h68l-4 -14c-17 -63 -49 -88 -102 -88h-35zM65 -155c-82 0 -119 55 -95 140l6 22h85l-10 -33c-9 -33 2 -49 34 -49h34c32 0 47 16 59 57l32 113c-28 -33 -60 -50 -90 -50h-9
c-78 0 -114 58 -89 146l65 229c24 88 71 135 149 135h9c46 0 73 -24 87 -60l36 55h61l-163 -570c-27 -94 -73 -135 -154 -135h-47zM147 127h29c30 0 49 23 61 62l65 228c11 38 -2 56 -39 56h-29c-32 0 -47 -16 -59 -57l-66 -232c-11 -38 1 -57 38 -57z" />
    <glyph glyph-name="uni0123" unicode="&#x123;" horiz-adv-x="427" 
d="M247 596l60 120h54l-34 -120h-80zM65 -155c-82 0 -119 55 -95 140l6 22h85l-10 -33c-9 -33 2 -49 34 -49h34c32 0 47 16 59 57l32 113c-28 -33 -60 -50 -90 -50h-9c-78 0 -114 58 -89 146l65 229c24 88 71 135 149 135h9c46 0 73 -24 87 -60l36 55h61l-163 -570
c-27 -94 -73 -135 -154 -135h-47zM147 127h29c30 0 49 23 61 62l65 228c11 38 -2 56 -39 56h-29c-32 0 -47 -16 -59 -57l-66 -232c-11 -38 1 -57 38 -57z" />
    <glyph glyph-name="gdotaccent" unicode="&#x121;" horiz-adv-x="404" 
d="M235 602l29 103h93l-29 -103h-93zM65 -155c-82 0 -119 55 -95 140l6 22h85l-10 -33c-9 -33 2 -49 34 -49h34c32 0 47 16 59 57l32 113c-28 -33 -60 -50 -90 -50h-9c-78 0 -114 58 -89 146l65 229c24 88 71 135 149 135h9c46 0 73 -24 87 -60l36 55h61l-163 -570
c-27 -94 -73 -135 -154 -135h-47zM147 127h29c30 0 49 23 61 62l65 228c11 38 -2 56 -39 56h-29c-32 0 -47 -16 -59 -57l-66 -232c-11 -38 1 -57 38 -57z" />
    <glyph glyph-name="h" unicode="h" horiz-adv-x="399" 
d="M-28 0l201 705h89l-57 -199c28 33 60 49 89 49h10c78 0 114 -58 89 -146l-117 -409h-89l119 417c11 38 -2 56 -39 56h-29c-32 0 -49 -22 -59 -57l-118 -416h-89z" />
    <glyph glyph-name="hbar" unicode="&#x127;" horiz-adv-x="399" 
d="M-28 0l165 577h-55l19 67h55l17 61h89l-17 -61h108l-19 -67h-109l-26 -92c28 34 60 50 89 50h10c78 0 114 -58 89 -146l-111 -389h-89l113 397c11 38 -2 56 -39 56h-29c-32 0 -49 -22 -59 -57l-112 -396h-89z" />
    <glyph glyph-name="i" unicode="i" horiz-adv-x="187" 
d="M142 602l29 103h93l-29 -103h-93zM-28 0l157 550h89l-157 -550h-89z" />
    <glyph glyph-name="dotlessi" unicode="&#x131;" horiz-adv-x="220" 
d="M-28 0l157 550h89l-157 -550h-89z" />
    <glyph glyph-name="iacute" unicode="&#xed;" horiz-adv-x="220" 
d="M145 590l72 115h96l-95 -115h-73zM-28 0l157 550h89l-157 -550h-89z" />
    <glyph glyph-name="icircumflex" unicode="&#xee;" horiz-adv-x="220" 
d="M54 590l129 115h70l61 -115h-76l-30 67l-67 -67h-87zM-28 0l157 550h89l-157 -550h-89z" />
    <glyph glyph-name="idieresis" unicode="&#xef;" horiz-adv-x="220" 
d="M80 602l29 103h87l-29 -103h-87zM211 602l29 103h87l-29 -103h-87zM-28 0l157 550h89l-157 -550h-89z" />
    <glyph glyph-name="i.loclTRK" horiz-adv-x="220" 
d="M142 602l29 103h93l-29 -103h-93zM-28 0l157 550h89l-157 -550h-89z" />
    <glyph glyph-name="igrave" unicode="&#xec;" horiz-adv-x="220" 
d="M132 590l-71 115h91l57 -115h-77zM-28 0l157 550h89l-157 -550h-89z" />
    <glyph glyph-name="imacron" unicode="&#x12b;" horiz-adv-x="220" 
d="M94 610l21 73h193l-21 -73h-193zM-28 0l157 550h89l-157 -550h-89z" />
    <glyph glyph-name="iogonek" unicode="&#x12f;" horiz-adv-x="187" 
d="M142 602l29 103h93l-29 -103h-93zM-28 0l157 550h89l-157 -550h-89zM-29 -155v120h52l29 -120h-81z" />
    <glyph glyph-name="j" unicode="j" horiz-adv-x="211" 
d="M147 602l29 103h93l-29 -103h-93zM-139 -155l23 82h39c29 0 42 14 52 49l164 574h89l-164 -577c-26 -89 -70 -128 -147 -128h-56z" />
    <glyph glyph-name="k" unicode="k" horiz-adv-x="374" 
d="M-28 0l202 705h89l-111 -389h49l138 234h90l-160 -270l4 -280h-87v234h-58l-67 -234h-89z" />
    <glyph glyph-name="uni0137" unicode="&#x137;" horiz-adv-x="374" 
d="M-28 0l202 705h89l-111 -389h49l138 234h90l-160 -270l4 -280h-87v234h-58l-67 -234h-89zM66 -155v120h80l-26 -120h-54z" />
    <glyph glyph-name="l" unicode="l" horiz-adv-x="190" 
d="M-28 0l201 705h89l-201 -705h-89z" />
    <glyph glyph-name="lacute" unicode="&#x13a;" horiz-adv-x="190" 
d="M195 745l74 115h96l-97 -115h-73zM-28 0l208 705h89l-208 -705h-89z" />
    <glyph glyph-name="lcaron" unicode="&#x13e;" horiz-adv-x="240" 
d="M-28 0l209 705h89l-208 -705h-90zM274 555l44 150h88l-75 -150h-57z" />
    <glyph glyph-name="uni013C" unicode="&#x13c;" horiz-adv-x="190" 
d="M-28 0l201 705h89l-201 -705h-89zM-37 -155v120h80l-26 -120h-54z" />
    <glyph glyph-name="lslash" unicode="&#x142;" horiz-adv-x="212" 
d="M-18 0l101 353l-69 -31l20 70l69 31l80 282h89l-67 -236l86 40l-20 -70l-86 -39l-114 -400h-89z" />
    <glyph glyph-name="m" unicode="m" horiz-adv-x="595" 
d="M-28 0l157 550h61v-52c31 39 68 57 104 57h6c43 0 71 -21 82 -58c34 39 75 58 117 58h6c75 0 108 -58 83 -146l-116 -409h-89l118 417c11 38 0 56 -34 56h-23c-32 0 -49 -22 -59 -57l-118 -416h-89l118 417c11 38 0 56 -34 56h-23c-32 0 -49 -22 -59 -57l-118 -416h-90z
" />
    <glyph glyph-name="n" unicode="n" horiz-adv-x="401" 
d="M-28 0l157 550h60v-52c32 39 68 57 105 57h10c78 0 114 -58 89 -146l-117 -409h-89l119 417c11 38 -2 56 -39 56h-28c-32 0 -49 -22 -59 -57l-119 -416h-89z" />
    <glyph glyph-name="nacute" unicode="&#x144;" horiz-adv-x="401" 
d="M237 590l72 115h96l-95 -115h-73zM-28 0l157 550h60v-52c32 39 68 57 105 57h10c78 0 114 -58 89 -146l-117 -409h-89l119 417c11 38 -2 56 -39 56h-28c-32 0 -49 -22 -59 -57l-119 -416h-89z" />
    <glyph glyph-name="ncaron" unicode="&#x148;" horiz-adv-x="401" 
d="M243 590l-63 115h76l31 -66l66 66h87l-127 -115h-70zM-28 0l157 550h60v-52c32 39 68 57 105 57h10c78 0 114 -58 89 -146l-117 -409h-89l119 417c11 38 -2 56 -39 56h-28c-32 0 -49 -22 -59 -57l-119 -416h-89z" />
    <glyph glyph-name="uni0146" unicode="&#x146;" horiz-adv-x="401" 
d="M-28 0l157 550h60v-52c32 39 68 57 105 57h10c78 0 114 -58 89 -146l-117 -409h-89l119 417c11 38 -2 56 -39 56h-28c-32 0 -49 -22 -59 -57l-119 -416h-89zM74 -155v120h80l-26 -120h-54z" />
    <glyph glyph-name="eng" unicode="&#x14b;" horiz-adv-x="425" 
d="M75 -155l23 82h34c26 0 38 13 47 44l127 446c11 38 -2 56 -39 56h-28c-32 0 -49 -22 -59 -57l-119 -416h-89l157 550h60v-52c31 39 68 57 105 57h10c78 0 114 -58 89 -146l-125 -439c-25 -87 -68 -125 -142 -125h-51z" />
    <glyph glyph-name="ntilde" unicode="&#xf1;" horiz-adv-x="401" 
d="M166 598l17 57c10 38 28 60 59 60c18 0 29 -6 49 -19l25 -19c14 -11 18 -15 21 -15c4 0 8 3 10 9l12 44h62l-16 -58c-11 -36 -30 -59 -60 -59c-19 0 -28 5 -48 19l-31 24c-9 7 -11 9 -15 9s-9 -4 -11 -10l-12 -42h-62zM-28 0l157 550h60v-52c32 39 68 57 105 57h10
c78 0 114 -58 89 -146l-117 -409h-89l119 417c11 38 -2 56 -39 56h-28c-32 0 -49 -22 -59 -57l-119 -416h-89z" />
    <glyph glyph-name="o" unicode="o" horiz-adv-x="393" 
d="M108 -5c-86 0 -126 58 -101 146l80 279c27 94 74 135 155 135h47c86 0 125 -58 100 -146l-79 -278c-28 -95 -74 -136 -154 -136h-48zM131 75h31c32 0 47 17 59 57l82 289c11 36 -2 54 -37 54h-31c-32 0 -48 -16 -59 -57l-83 -288c-10 -37 2 -55 38 -55z" />
    <glyph glyph-name="oacute" unicode="&#xf3;" horiz-adv-x="393" 
d="M245 590l73 115h95l-95 -115h-73zM108 -5c-86 0 -126 58 -101 146l80 279c27 94 74 135 155 135h47c86 0 125 -58 100 -146l-79 -278c-28 -95 -74 -136 -154 -136h-48zM131 75h31c32 0 47 17 59 57l82 289c11 36 -2 54 -37 54h-31c-32 0 -48 -16 -59 -57l-83 -288
c-10 -37 2 -55 38 -55z" />
    <glyph glyph-name="ocircumflex" unicode="&#xf4;" horiz-adv-x="393" 
d="M154 590l129 115h70l61 -115h-75l-30 67l-67 -67h-88zM108 -5c-86 0 -126 58 -101 146l80 279c27 94 74 135 155 135h47c86 0 125 -58 100 -146l-79 -278c-28 -95 -74 -136 -154 -136h-48zM131 75h31c32 0 47 17 59 57l82 289c11 36 -2 54 -37 54h-31
c-32 0 -48 -16 -59 -57l-83 -288c-10 -37 2 -55 38 -55z" />
    <glyph glyph-name="odieresis" unicode="&#xf6;" horiz-adv-x="393" 
d="M180 602l29 103h87l-29 -103h-87zM311 602l29 103h87l-29 -103h-87zM108 -5c-86 0 -126 58 -101 146l80 279c27 94 74 135 155 135h47c86 0 125 -58 100 -146l-79 -278c-28 -95 -74 -136 -154 -136h-48zM131 75h31c32 0 47 17 59 57l82 289c11 36 -2 54 -37 54h-31
c-32 0 -48 -16 -59 -57l-83 -288c-10 -37 2 -55 38 -55z" />
    <glyph glyph-name="ograve" unicode="&#xf2;" horiz-adv-x="393" 
d="M232 590l-71 115h92l56 -115h-77zM108 -5c-86 0 -126 58 -101 146l80 279c27 94 74 135 155 135h47c86 0 125 -58 100 -146l-79 -278c-28 -95 -74 -136 -154 -136h-48zM131 75h31c32 0 47 17 59 57l82 289c11 36 -2 54 -37 54h-31c-32 0 -48 -16 -59 -57l-83 -288
c-10 -37 2 -55 38 -55z" />
    <glyph glyph-name="ohungarumlaut" unicode="&#x151;" horiz-adv-x="393" 
d="M171 590l73 115h95l-95 -115h-73zM297 590l73 115h95l-95 -115h-73zM108 -5c-86 0 -126 58 -101 146l80 279c27 94 74 135 155 135h47c86 0 125 -58 100 -146l-79 -278c-28 -95 -74 -136 -154 -136h-48zM131 75h31c32 0 47 17 59 57l82 289c11 36 -2 54 -37 54h-31
c-32 0 -48 -16 -59 -57l-83 -288c-10 -37 2 -55 38 -55z" />
    <glyph glyph-name="omacron" unicode="&#x14d;" horiz-adv-x="393" 
d="M195 610l21 73h193l-21 -73h-193zM108 -5c-86 0 -126 58 -101 146l80 279c27 94 74 135 155 135h47c86 0 125 -58 100 -146l-79 -278c-28 -95 -74 -136 -154 -136h-48zM131 75h31c32 0 47 17 59 57l82 289c11 36 -2 54 -37 54h-31c-32 0 -48 -16 -59 -57l-83 -288
c-10 -37 2 -55 38 -55z" />
    <glyph glyph-name="oslash" unicode="&#xf8;" horiz-adv-x="395" 
d="M108 -5c-33 0 -59 9 -77 24l-15 -19h-77l63 77c-4 18 -1 40 5 64l80 279c27 94 74 135 155 135h47c33 0 59 -8 76 -24l15 19h77l-62 -76c3 -19 1 -41 -6 -65l-79 -278c-28 -95 -74 -136 -154 -136h-48zM119 219l185 238c-5 12 -18 18 -38 18h-31c-32 0 -48 -16 -59 -57z
M131 75h31c32 0 47 17 59 57l57 199l-186 -237c6 -13 18 -19 39 -19z" />
    <glyph glyph-name="otilde" unicode="&#xf5;" horiz-adv-x="393" 
d="M174 598l17 57c11 38 29 60 59 60c18 0 29 -6 49 -19l26 -19c13 -11 17 -15 21 -15s8 3 9 9l13 44h62l-16 -58c-11 -36 -30 -59 -61 -59c-19 0 -27 5 -48 19l-30 24c-10 7 -11 9 -16 9c-4 0 -9 -4 -10 -10l-13 -42h-62zM108 -5c-86 0 -126 58 -101 146l80 279
c27 94 74 135 155 135h47c86 0 125 -58 100 -146l-79 -278c-28 -95 -74 -136 -154 -136h-48zM131 75h31c32 0 47 17 59 57l82 289c11 36 -2 54 -37 54h-31c-32 0 -48 -16 -59 -57l-83 -288c-10 -37 2 -55 38 -55z" />
    <glyph glyph-name="oe" unicode="&#x153;" horiz-adv-x="585" 
d="M104 -5c-84 0 -122 58 -97 146l80 279c27 94 73 135 151 135h32c42 0 69 -21 79 -57c26 39 61 57 107 57h26c83 0 120 -58 95 -146l-47 -164h-198l-33 -116c-11 -36 0 -54 33 -54h23c29 0 43 17 55 57l14 48h86l-14 -49c-27 -95 -72 -136 -149 -136h-26
c-47 0 -78 20 -90 55c-25 -38 -56 -55 -98 -55h-29zM127 75h26c32 0 47 17 59 57l82 289c11 36 -2 54 -37 54h-26c-29 0 -44 -16 -55 -57l-83 -288c-10 -37 1 -55 34 -55zM352 316h110l30 105c11 36 0 54 -32 54h-23c-30 0 -44 -16 -56 -57z" />
    <glyph glyph-name="p" unicode="p" horiz-adv-x="402" 
d="M-72 -155l201 705h61v-52c32 39 68 57 105 57h10c78 0 114 -58 89 -146l-80 -278c-26 -89 -71 -136 -149 -136h-9c-41 0 -68 20 -82 50l-57 -200h-89zM138 77h29c32 0 47 17 59 57l80 283c11 38 -2 56 -39 56h-28c-32 0 -49 -22 -59 -57l-81 -282c-10 -38 2 -57 39 -57z
" />
    <glyph glyph-name="thorn" unicode="&#xfe;" horiz-adv-x="400" 
d="M-72 -155l246 860h89l-57 -200c28 33 59 50 89 50h10c78 0 113 -58 89 -146l-79 -278c-26 -89 -71 -136 -149 -136h-9c-41 0 -68 22 -81 54l-59 -204h-89zM139 77h29c32 0 47 17 59 57l80 283c11 38 -2 56 -39 56h-29c-32 0 -49 -22 -59 -57l-80 -282
c-11 -38 2 -57 39 -57z" />
    <glyph glyph-name="q" unicode="q" horiz-adv-x="392" 
d="M138 -155l57 200c-27 -32 -59 -50 -88 -50h-10c-78 0 -114 58 -89 146l79 279c25 88 72 135 150 135h8c46 0 74 -24 87 -60l36 55h61l-202 -705h-89zM134 77h28c32 0 49 22 60 57l80 283c11 38 -2 56 -39 56h-29c-32 0 -48 -16 -59 -57l-80 -282c-11 -38 2 -57 39 -57z
" />
    <glyph glyph-name="r" unicode="r" horiz-adv-x="343" 
d="M-28 0l157 550h61v-52c31 39 65 57 103 57h5c64 0 92 -46 69 -129l-35 -123h-86l35 124c10 35 -2 47 -28 47h-14c-33 0 -49 -23 -59 -58l-119 -416h-89z" />
    <glyph glyph-name="racute" unicode="&#x155;" horiz-adv-x="343" 
d="M222 590l73 115h95l-95 -115h-73zM-28 0l157 550h61v-52c31 39 65 57 103 57h5c64 0 92 -46 69 -129l-35 -123h-86l35 124c10 35 -2 47 -28 47h-14c-33 0 -49 -23 -59 -58l-119 -416h-89z" />
    <glyph glyph-name="rcaron" unicode="&#x159;" horiz-adv-x="343" 
d="M228 590l-62 115h75l31 -66l66 66h88l-128 -115h-70zM-28 0l157 550h61v-52c31 39 65 57 103 57h5c64 0 92 -46 69 -129l-35 -123h-86l35 124c10 35 -2 47 -28 47h-14c-33 0 -49 -23 -59 -58l-119 -416h-89z" />
    <glyph glyph-name="uni0157" unicode="&#x157;" horiz-adv-x="343" 
d="M-28 0l157 550h61v-52c31 39 65 57 103 57h5c64 0 92 -46 69 -129l-35 -123h-86l35 124c10 35 -2 47 -28 47h-14c-33 0 -49 -23 -59 -58l-119 -416h-89zM-36 -155v120h81l-26 -120h-55z" />
    <glyph glyph-name="s" unicode="s" horiz-adv-x="349" 
d="M92 -5c-79 0 -119 58 -95 141l18 62h84l-21 -74c-9 -31 1 -52 35 -52h17c33 0 47 15 55 44l4 12c11 38 9 64 -17 92l-66 70c-34 38 -42 87 -29 134l3 11c23 77 72 120 147 120h30c81 0 117 -56 93 -141l-18 -61h-83l21 74c10 35 -3 52 -33 52h-16c-33 0 -48 -19 -57 -48
l-4 -15c-9 -33 -9 -57 15 -85l64 -68c42 -48 51 -92 34 -150l-2 -8c-20 -70 -68 -110 -147 -110h-32z" />
    <glyph glyph-name="sacute" unicode="&#x15b;" horiz-adv-x="349" 
d="M221 590l73 115h95l-95 -115h-73zM92 -5c-79 0 -119 58 -95 141l18 62h84l-21 -74c-9 -31 1 -52 35 -52h17c33 0 47 15 55 44l4 12c11 38 9 64 -17 92l-66 70c-34 38 -42 87 -29 134l3 11c23 77 72 120 147 120h30c81 0 117 -56 93 -141l-18 -61h-83l21 74
c10 35 -3 52 -33 52h-16c-33 0 -48 -19 -57 -48l-4 -15c-9 -33 -9 -57 15 -85l64 -68c42 -48 51 -92 34 -150l-2 -8c-20 -70 -68 -110 -147 -110h-32z" />
    <glyph glyph-name="scaron" unicode="&#x161;" horiz-adv-x="349" 
d="M227 590l-62 115h75l31 -66l66 66h88l-128 -115h-70zM92 -5c-79 0 -119 58 -95 141l18 62h84l-21 -74c-9 -31 1 -52 35 -52h17c33 0 47 15 55 44l4 12c11 38 9 64 -17 92l-66 70c-34 38 -42 87 -29 134l3 11c23 77 72 120 147 120h30c81 0 117 -56 93 -141l-18 -61h-83
l21 74c10 35 -3 52 -33 52h-16c-33 0 -48 -19 -57 -48l-4 -15c-9 -33 -9 -57 15 -85l64 -68c42 -48 51 -92 34 -150l-2 -8c-20 -70 -68 -110 -147 -110h-32z" />
    <glyph glyph-name="scedilla" unicode="&#x15f;" horiz-adv-x="349" 
d="M92 -5c-79 0 -119 58 -95 141l18 62h84l-21 -74c-9 -31 1 -52 35 -52h17c33 0 47 15 55 44l4 12c11 38 9 64 -17 92l-66 70c-34 38 -42 87 -29 134l3 11c23 77 72 120 147 120h30c81 0 117 -56 93 -141l-18 -61h-83l21 74c10 35 -3 52 -33 52h-16c-33 0 -48 -19 -57 -48
l-4 -15c-9 -33 -9 -57 15 -85l64 -68c42 -48 51 -92 34 -150l-2 -8c-20 -70 -68 -110 -147 -110h-32zM52 -155l26 120h54v-120h-80z" />
    <glyph glyph-name="uni0219" unicode="&#x219;" horiz-adv-x="349" 
d="M92 -5c-79 0 -119 58 -95 141l18 62h84l-21 -74c-9 -31 1 -52 35 -52h17c33 0 47 15 55 44l4 12c11 38 9 64 -17 92l-66 70c-34 38 -42 87 -29 134l3 11c23 77 72 120 147 120h30c81 0 117 -56 93 -141l-18 -61h-83l21 74c10 35 -3 52 -33 52h-16c-33 0 -48 -19 -57 -48
l-4 -15c-9 -33 -9 -57 15 -85l64 -68c42 -48 51 -92 34 -150l-2 -8c-20 -70 -68 -110 -147 -110h-32zM59 -155v120h80l-26 -120h-54z" />
    <glyph glyph-name="germandbls" unicode="&#xdf;" horiz-adv-x="420" 
d="M209 -5c-67 0 -100 41 -77 120l16 59h71l-20 -70c-6 -21 3 -34 25 -34h10c19 0 28 12 34 35l8 28c10 34 12 53 -6 74l-40 48c-28 34 -35 75 -24 114l9 30c20 71 60 111 117 111h13c17 0 25 10 33 36l11 39c8 30 0 40 -29 40h-86c-30 0 -42 -14 -53 -51l-164 -574h-85
l164 575c27 93 70 130 147 130h110c74 0 102 -44 82 -116l-15 -52c-22 -75 -61 -103 -111 -103h-16c-26 0 -35 -16 -40 -36l-8 -27c-7 -22 -8 -44 11 -65l46 -54c33 -39 27 -89 16 -129l-7 -23c-19 -66 -58 -105 -126 -105h-16z" />
    <glyph glyph-name="t" unicode="t" horiz-adv-x="276" 
d="M140 0c-83 0 -120 55 -96 139l94 329h-74l23 82h74l57 96h60l-27 -96h89l-23 -82h-90l-97 -340c-9 -30 6 -46 34 -46h42l-23 -82h-43z" />
    <glyph glyph-name="tbar" unicode="&#x167;" horiz-adv-x="306" 
d="M140 0c-83 0 -120 55 -96 139l29 103h-71l19 67h71l46 159h-74l23 82h74l57 96h60l-27 -96h89l-23 -82h-90l-45 -159h119l-19 -67h-120l-32 -114c-9 -30 6 -46 34 -46h42l-23 -82h-43z" />
    <glyph glyph-name="tcaron" unicode="&#x165;" horiz-adv-x="310" 
d="M140 0c-83 0 -119 55 -95 139l98 329h-75l24 82h75l57 96h60l-28 -96h62l47 155h88l-79 -157h-29l-23 -80h-90l-101 -340c-9 -30 5 -46 34 -46h42l-24 -82h-43z" />
    <glyph glyph-name="uni0163" unicode="&#x163;" horiz-adv-x="276" 
d="M140 0c-83 0 -120 55 -96 139l94 329h-74l23 82h74l57 96h60l-27 -96h89l-23 -82h-90l-97 -340c-9 -30 6 -46 34 -46h42l-23 -82h-43zM44 -155l26 120h54v-120h-80z" />
    <glyph glyph-name="uni021B" unicode="&#x21b;" horiz-adv-x="276" 
d="M140 0c-83 0 -120 55 -96 139l94 329h-74l23 82h74l57 96h60l-27 -96h89l-23 -82h-90l-97 -340c-9 -30 6 -46 34 -46h42l-23 -82h-43zM50 -155v120h80l-26 -120h-54z" />
    <glyph glyph-name="u" unicode="u" horiz-adv-x="401" 
d="M97 -5c-78 0 -115 58 -90 146l117 409h89l-119 -416c-10 -38 2 -57 39 -57h28c32 0 49 22 60 57l118 416h89l-157 -550h-60v52c-31 -38 -67 -57 -103 -57h-11z" />
    <glyph glyph-name="uacute" unicode="&#xfa;" horiz-adv-x="401" 
d="M241 590l72 115h96l-95 -115h-73zM97 -5c-78 0 -115 58 -90 146l117 409h89l-119 -416c-10 -38 2 -57 39 -57h28c32 0 49 22 60 57l118 416h89l-157 -550h-60v52c-31 -38 -67 -57 -103 -57h-11z" />
    <glyph glyph-name="ucircumflex" unicode="&#xfb;" horiz-adv-x="401" 
d="M150 590l129 115h70l61 -115h-76l-30 67l-67 -67h-87zM97 -5c-78 0 -115 58 -90 146l117 409h89l-119 -416c-10 -38 2 -57 39 -57h28c32 0 49 22 60 57l118 416h89l-157 -550h-60v52c-31 -38 -67 -57 -103 -57h-11z" />
    <glyph glyph-name="udieresis" unicode="&#xfc;" horiz-adv-x="401" 
d="M176 602l29 103h87l-29 -103h-87zM307 602l29 103h87l-29 -103h-87zM97 -5c-78 0 -115 58 -90 146l117 409h89l-119 -416c-10 -38 2 -57 39 -57h28c32 0 49 22 60 57l118 416h89l-157 -550h-60v52c-31 -38 -67 -57 -103 -57h-11z" />
    <glyph glyph-name="ugrave" unicode="&#xf9;" horiz-adv-x="412" 
d="M239 590l-71 115h92l56 -115h-77zM109 -5c-78 0 -116 58 -90 146l117 409h89l-119 -416c-11 -38 2 -57 39 -57h28c32 0 49 22 59 57l119 416h89l-157 -550h-60v52c-31 -38 -67 -57 -104 -57h-10z" />
    <glyph glyph-name="uhungarumlaut" unicode="&#x171;" horiz-adv-x="401" 
d="M167 590l72 115h96l-95 -115h-73zM293 590l72 115h96l-95 -115h-73zM97 -5c-78 0 -115 58 -90 146l117 409h89l-119 -416c-10 -38 2 -57 39 -57h28c32 0 49 22 60 57l118 416h89l-157 -550h-60v52c-31 -38 -67 -57 -103 -57h-11z" />
    <glyph glyph-name="umacron" unicode="&#x16b;" horiz-adv-x="401" 
d="M190 610l21 73h193l-21 -73h-193zM97 -5c-78 0 -115 58 -90 146l117 409h89l-119 -416c-10 -38 2 -57 39 -57h28c32 0 49 22 60 57l118 416h89l-157 -550h-60v52c-31 -38 -67 -57 -103 -57h-11z" />
    <glyph glyph-name="uogonek" unicode="&#x173;" horiz-adv-x="401" 
d="M97 -5c-78 0 -115 58 -90 146l117 409h89l-119 -416c-10 -38 2 -57 39 -57h28c32 0 49 22 60 57l118 416h89l-157 -550h-60v52c-31 -38 -67 -57 -103 -57h-11zM212 -155v120h52l29 -120h-81z" />
    <glyph glyph-name="uring" unicode="&#x16f;" horiz-adv-x="401" 
d="M277 576c-49 0 -86 37 -86 86c0 48 37 85 86 85c47 0 84 -37 84 -85c0 -49 -37 -86 -84 -86zM277 622c22 0 39 18 39 40c0 23 -17 40 -39 40c-23 0 -41 -17 -41 -40c0 -22 18 -40 41 -40zM97 -5c-78 0 -115 58 -90 146l117 409h89l-119 -416c-10 -38 2 -57 39 -57h28
c32 0 49 22 60 57l118 416h89l-157 -550h-60v52c-31 -38 -67 -57 -103 -57h-11z" />
    <glyph glyph-name="v" unicode="v" horiz-adv-x="354" 
d="M36 0l58 550h87l-32 -254l-26 -195h3l198 449h92l-257 -550h-123z" />
    <glyph glyph-name="w" unicode="w" horiz-adv-x="551" 
d="M50 0l49 550h86l-29 -255l-21 -162h4l161 340h62l-26 -340h4l77 180l103 237h90l-249 -550h-96l16 285h-3l-133 -285h-95z" />
    <glyph glyph-name="wacute" unicode="&#x1e83;" horiz-adv-x="551" 
d="M327 590l73 115h95l-95 -115h-73zM50 0l49 550h86l-29 -255l-21 -162h4l161 340h62l-26 -340h4l77 180l103 237h90l-249 -550h-96l16 285h-3l-133 -285h-95z" />
    <glyph glyph-name="wcircumflex" unicode="&#x175;" horiz-adv-x="551" 
d="M236 590l129 115h70l61 -115h-75l-30 67l-67 -67h-88zM50 0l49 550h86l-29 -255l-21 -162h4l161 340h62l-26 -340h4l77 180l103 237h90l-249 -550h-96l16 285h-3l-133 -285h-95z" />
    <glyph glyph-name="wdieresis" unicode="&#x1e85;" horiz-adv-x="551" 
d="M262 602l29 103h87l-29 -103h-87zM393 602l29 103h87l-29 -103h-87zM50 0l49 550h86l-29 -255l-21 -162h4l161 340h62l-26 -340h4l77 180l103 237h90l-249 -550h-96l16 285h-3l-133 -285h-95z" />
    <glyph glyph-name="wgrave" unicode="&#x1e81;" horiz-adv-x="551" 
d="M314 590l-71 115h92l56 -115h-77zM50 0l49 550h86l-29 -255l-21 -162h4l161 340h62l-26 -340h4l77 180l103 237h90l-249 -550h-96l16 285h-3l-133 -285h-95z" />
    <glyph glyph-name="x" unicode="x" horiz-adv-x="356" 
d="M-66 0l200 292l-38 258h85l22 -195h3l123 195h92l-188 -276l33 -274h-84l-20 200h-4l-128 -200h-96z" />
    <glyph glyph-name="y" unicode="y" horiz-adv-x="353" 
d="M-74 -155l23 82h37c28 0 41 10 63 58l46 565h87l-29 -255l-29 -197h3l195 452h95l-274 -578c-40 -84 -84 -127 -158 -127h-59z" />
    <glyph glyph-name="yacute" unicode="&#xfd;" horiz-adv-x="353" 
d="M231 590l72 115h96l-95 -115h-73zM-74 -155l23 82h37c28 0 41 10 63 58l46 565h87l-29 -255l-29 -197h3l195 452h95l-274 -578c-40 -84 -84 -127 -158 -127h-59z" />
    <glyph glyph-name="ycircumflex" unicode="&#x177;" horiz-adv-x="353" 
d="M140 590l129 115h70l61 -115h-76l-30 67l-67 -67h-87zM-74 -155l23 82h37c28 0 41 10 63 58l46 565h87l-29 -255l-29 -197h3l195 452h95l-274 -578c-40 -84 -84 -127 -158 -127h-59z" />
    <glyph glyph-name="ydieresis" unicode="&#xff;" horiz-adv-x="353" 
d="M166 602l29 103h87l-29 -103h-87zM297 602l29 103h87l-29 -103h-87zM-74 -155l23 82h37c28 0 41 10 63 58l46 565h87l-29 -255l-29 -197h3l195 452h95l-274 -578c-40 -84 -84 -127 -158 -127h-59z" />
    <glyph glyph-name="ygrave" unicode="&#x1ef3;" horiz-adv-x="353" 
d="M218 590l-71 115h91l57 -115h-77zM-74 -155l23 82h37c28 0 41 10 63 58l46 565h87l-29 -255l-29 -197h3l195 452h95l-274 -578c-40 -84 -84 -127 -158 -127h-59z" />
    <glyph glyph-name="z" unicode="z" horiz-adv-x="325" 
d="M-58 0l18 66l290 402h-166l23 82h268l-19 -66l-288 -402h182l-23 -82h-285z" />
    <glyph glyph-name="zacute" unicode="&#x17a;" horiz-adv-x="325" 
d="M215 590l72 115h96l-95 -115h-73zM-58 0l18 66l290 402h-166l23 82h268l-19 -66l-288 -402h182l-23 -82h-285z" />
    <glyph glyph-name="zcaron" unicode="&#x17e;" horiz-adv-x="325" 
d="M221 590l-63 115h76l31 -66l66 66h87l-127 -115h-70zM-58 0l18 66l290 402h-166l23 82h268l-19 -66l-288 -402h182l-23 -82h-285z" />
    <glyph glyph-name="zdotaccent" unicode="&#x17c;" horiz-adv-x="325" 
d="M212 602l29 103h93l-29 -103h-93zM-58 0l18 66l290 402h-166l23 82h268l-19 -66l-288 -402h182l-23 -82h-285z" />
    <glyph glyph-name="a.ss01" horiz-adv-x="392" 
d="M96 -5c-78 0 -114 58 -89 146l80 279c25 88 72 135 150 135h8c46 0 74 -25 86 -60l37 55h60l-157 -550h-60v52c-32 -38 -69 -57 -105 -57h-10zM133 77h29c32 0 48 22 59 57l80 283c11 38 -2 56 -39 56h-28c-32 0 -47 -16 -59 -57l-81 -282c-10 -38 2 -57 39 -57z" />
    <glyph glyph-name="uni0410" unicode="&#x410;" horiz-adv-x="409" 
d="M-53 0l301 700h160l-97 -700h-91l22 147h-140l-61 -147h-94zM136 233h120l58 382h-19z" />
    <glyph glyph-name="uni0411" unicode="&#x411;" horiz-adv-x="397" 
d="M-23 0l200 700h288l-24 -86h-196l-60 -211h62c103 0 142 -71 114 -167l-23 -81c-31 -111 -84 -155 -175 -155h-186zM94 86h80c39 0 58 21 72 69l27 94c13 45 -3 68 -47 68h-66z" />
    <glyph glyph-name="uni0412" unicode="&#x412;" horiz-adv-x="413" 
d="M-21 0l201 700h148c103 0 143 -70 115 -167l-19 -65c-19 -67 -47 -104 -90 -122c33 -26 43 -70 27 -124l-19 -67c-31 -110 -84 -155 -175 -155h-188zM182 390h76c40 0 59 21 73 69l27 90c12 45 -3 68 -48 68h-63zM95 84h83c39 0 58 20 71 69l26 89c13 45 -3 68 -49 68
h-67z" />
    <glyph glyph-name="uni0413" unicode="&#x413;" horiz-adv-x="323" 
d="M-23 0l200 700h258l-25 -86h-165l-175 -614h-93z" />
    <glyph glyph-name="uni0490" unicode="&#x490;" horiz-adv-x="323" 
d="M-23 0l200 700h172l48 100h66l-53 -186h-165l-175 -614h-93z" />
    <glyph glyph-name="uni0414" unicode="&#x414;" horiz-adv-x="464" 
d="M-95 -100l54 186h46c25 48 62 153 106 298l98 316h307l-176 -614h55l-54 -186h-65l9 100h-259l-55 -100h-66zM90 86h158l151 528h-125l-71 -231c-31 -100 -71 -220 -113 -297z" />
    <glyph glyph-name="uni0415" unicode="&#x415;" horiz-adv-x="349" 
d="M-23 0l200 700h249l-25 -86h-157l-63 -221h148l-25 -86h-148l-63 -221h157l-24 -86h-249z" />
    <glyph glyph-name="uni0401" unicode="&#x401;" horiz-adv-x="349" 
d="M204 752l29 103h87l-29 -103h-87zM335 752l29 103h87l-29 -103h-87zM-23 0l200 700h249l-25 -86h-157l-63 -221h148l-25 -86h-148l-63 -221h157l-24 -86h-249z" />
    <glyph glyph-name="uni0416" unicode="&#x416;" horiz-adv-x="631" 
d="M-23 0l200 700h93l-88 -307h122l87 307h93l-88 -307h122l87 307h93l-200 -700h-93l88 307h-122l-87 -307h-93l88 307h-122l-87 -307h-93z" />
    <glyph glyph-name="uni0417" unicode="&#x417;" horiz-adv-x="399" 
d="M118 -5c-102 0 -141 71 -113 168l24 87h92l-30 -106c-12 -42 2 -63 42 -63h32c38 0 56 21 70 69l25 90c13 45 -3 68 -47 68h-49l25 85h60c39 0 57 20 71 69l26 91c13 44 -1 66 -41 66h-29c-38 0 -56 -20 -70 -69l-28 -100h-89l27 100c31 111 84 155 174 155h33
c100 0 138 -71 110 -167l-19 -69c-20 -67 -48 -105 -93 -121c32 -27 42 -72 27 -125l-21 -73c-31 -111 -83 -155 -173 -155h-36z" />
    <glyph glyph-name="uni0418" unicode="&#x418;" horiz-adv-x="461" 
d="M-21 0l201 700h89l-64 -224l-77 -246h5l298 470h86l-200 -700h-89l64 225l77 245h-5l-298 -470h-87z" />
    <glyph glyph-name="uni0419" unicode="&#x419;" horiz-adv-x="461" 
d="M351 753c-60 0 -82 40 -66 95l1 7h67l-4 -16c-7 -23 0 -31 19 -31h20c17 0 25 9 32 33l4 14h67l-4 -14c-17 -63 -48 -88 -101 -88h-35zM-21 0l201 700h89l-64 -224l-77 -246h5l298 470h86l-200 -700h-89l64 225l77 245h-5l-298 -470h-87z" />
    <glyph glyph-name="uni041A" unicode="&#x41a;" horiz-adv-x="417" 
d="M-23 0l207 700h92l-90 -307h52l181 307h96l-204 -342l5 -358h-91l-1 307h-64l-90 -307h-93z" />
    <glyph glyph-name="uni041B" unicode="&#x41b;" horiz-adv-x="450" 
d="M-38 -2l-27 2l25 86h26c40 0 47 20 119 255l110 359h302l-200 -700h-93l176 614h-121l-94 -306c-26 -82 -46 -153 -67 -207c-28 -68 -64 -108 -156 -103z" />
    <glyph glyph-name="uni041C" unicode="&#x41c;" horiz-adv-x="562" 
d="M-21 0l201 700h83l21 -411l247 411h96l-200 -700h-88l66 231l76 243h-5l-216 -358h-42l-17 357h-5l-62 -242l-66 -231h-89z" />
    <glyph glyph-name="uni041D" unicode="&#x41d;" horiz-adv-x="445" 
d="M-23 0l200 700h93l-88 -307h150l88 307h92l-200 -700h-92l87 307h-150l-87 -307h-93z" />
    <glyph glyph-name="uni041E" unicode="&#x41e;" horiz-adv-x="441" 
d="M134 -5c-103 0 -143 71 -115 168l110 387c32 111 84 155 175 155h47c103 0 142 -71 115 -167l-111 -388c-31 -111 -84 -155 -175 -155h-46zM155 81h36c39 0 58 21 72 69l114 401c13 45 -3 68 -47 68h-37c-39 0 -57 -20 -71 -69l-115 -401c-13 -45 3 -68 48 -68z" />
    <glyph glyph-name="uni041F" unicode="&#x41f;" horiz-adv-x="445" 
d="M-23 0l200 700h335l-200 -700h-92l175 614h-150l-175 -614h-93z" />
    <glyph glyph-name="uni0420" unicode="&#x420;" horiz-adv-x="411" 
d="M-23 0l200 700h156c103 0 143 -71 115 -167l-27 -95c-32 -111 -84 -155 -175 -155h-95l-81 -283h-93zM175 369h82c39 0 58 21 71 69l32 108c12 45 -3 68 -48 68h-67z" />
    <glyph glyph-name="uni0421" unicode="&#x421;" horiz-adv-x="419" 
d="M132 -5c-102 0 -141 71 -113 168l110 387c32 111 84 155 174 155h35c102 0 141 -71 113 -167l-30 -108h-91l34 121c13 45 -2 68 -46 68h-26c-38 0 -56 -20 -70 -69l-115 -401c-13 -45 3 -68 46 -68h28c39 0 57 21 71 69l33 115h91l-32 -115c-32 -111 -84 -155 -175 -155
h-37z" />
    <glyph glyph-name="uni0422" unicode="&#x422;" horiz-adv-x="361" 
d="M59 0l175 614h-119l25 86h330l-24 -86h-119l-176 -614h-92z" />
    <glyph glyph-name="uni0423" unicode="&#x423;" horiz-adv-x="386" 
d="M23 86h30c30 0 42 12 69 74l15 540h92l-16 -267l-17 -169h3l74 168l124 268h98l-274 -544c-55 -108 -88 -156 -172 -156h-51z" />
    <glyph glyph-name="uni040E" unicode="&#x40e;" horiz-adv-x="386" 
d="M317 753c-60 0 -82 40 -66 95l1 7h67l-4 -16c-7 -23 0 -31 19 -31h20c17 0 25 9 32 33l4 14h67l-4 -14c-17 -63 -48 -88 -101 -88h-35zM-2 0l25 86h30c30 0 42 12 69 74l15 540h92l-16 -267l-17 -169h3l74 168l124 268h98l-274 -544c-55 -108 -88 -156 -172 -156h-51z
" />
    <glyph glyph-name="uni0424" unicode="&#x424;" horiz-adv-x="608" 
d="M177 -10l27 95h-49c-103 0 -143 70 -116 168l68 238c32 111 84 155 175 155h82l24 84h92l-24 -84h50c103 0 143 -70 116 -168l-69 -238c-31 -111 -84 -155 -175 -155h-81l-28 -95h-92zM176 171h52l111 389h-68c-39 0 -57 -21 -71 -69l-72 -252c-13 -45 3 -68 48 -68z
M321 171h68c39 0 58 21 72 69l72 252c12 45 -3 68 -48 68h-53z" />
    <glyph glyph-name="uni0425" unicode="&#x425;" horiz-adv-x="421" 
d="M-62 0l243 371l-37 329h92l18 -252h3l154 252h101l-231 -352l37 -348h-91l-21 256h-3l-159 -256h-106z" />
    <glyph glyph-name="uni0427" unicode="&#x427;" horiz-adv-x="416" 
d="M191 0l80 282h-78c-101 0 -140 55 -110 157l74 261h93l-77 -267c-12 -42 4 -65 45 -65h78l95 332h92l-200 -700h-92z" />
    <glyph glyph-name="uni0426" unicode="&#x426;" horiz-adv-x="459" 
d="M271 -100l9 100h-303l200 700h93l-176 -614h150l176 614h92l-175 -614h53l-54 -186h-65z" />
    <glyph glyph-name="uni0428" unicode="&#x428;" horiz-adv-x="628" 
d="M-23 0l200 700h93l-176 -614h120l176 614h92l-175 -614h120l175 614h93l-200 -700h-518z" />
    <glyph glyph-name="uni0429" unicode="&#x429;" horiz-adv-x="641" 
d="M453 -100l9 100h-485l200 700h93l-176 -614h120l176 614h92l-175 -614h120l175 614h93l-176 -614h53l-53 -186h-66z" />
    <glyph glyph-name="uni042C" unicode="&#x42c;" horiz-adv-x="400" 
d="M-23 0l200 700h93l-85 -297h60c103 0 142 -71 114 -167l-23 -81c-31 -111 -84 -155 -175 -155h-184zM94 86h78c39 0 58 21 72 69l27 94c13 45 -3 68 -47 68h-64z" />
    <glyph glyph-name="uni042A" unicode="&#x42a;" horiz-adv-x="459" 
d="M36 0l176 615h-106l24 85h198l-85 -297h60c103 0 143 -71 115 -167l-23 -81c-32 -111 -84 -155 -175 -155h-184zM153 86h78c39 0 58 21 71 69l28 94c12 45 -3 68 -48 68h-63z" />
    <glyph glyph-name="uni042B" unicode="&#x42b;" horiz-adv-x="607" 
d="M-23 0l200 700h93l-85 -297h60c103 0 142 -71 114 -167l-23 -81c-31 -111 -84 -155 -175 -155h-184zM382 0l200 700h92l-200 -700h-92zM94 86h78c39 0 58 21 72 69l27 94c13 45 -3 68 -47 68h-64z" />
    <glyph glyph-name="uni0404" unicode="&#x404;" horiz-adv-x="419" 
d="M132 -5c-102 0 -141 71 -113 168l110 387c32 111 84 155 174 155h35c102 0 141 -71 113 -167l-24 -88h-91l28 101c13 45 -2 68 -46 68h-26c-38 0 -56 -20 -70 -69l-45 -157h115l-25 -86h-115l-45 -158c-13 -45 3 -68 46 -68h28c39 0 57 21 71 69l28 100h91l-27 -100
c-31 -111 -84 -155 -175 -155h-37z" />
    <glyph glyph-name="uni042D" unicode="&#x42d;" horiz-adv-x="414" 
d="M120 -5c-102 0 -142 71 -114 168l25 87h91l-30 -105c-12 -42 3 -64 44 -64h30c38 0 56 21 70 69l45 157h-115l25 86h115l46 161c12 43 -3 65 -45 65h-30c-39 0 -57 -20 -71 -69l-28 -100h-89l27 100c31 111 84 155 175 155h35c102 0 141 -71 113 -167l-110 -388
c-32 -111 -84 -155 -174 -155h-35z" />
    <glyph glyph-name="uni0406" unicode="&#x406;" horiz-adv-x="203" 
d="M-23 0l200 700h93l-200 -700h-93z" />
    <glyph glyph-name="uni0407" unicode="&#x407;" horiz-adv-x="218" 
d="M130 752l29 103h87l-29 -103h-87zM261 752l29 103h87l-29 -103h-87zM-23 0l200 700h93l-200 -700h-93z" />
    <glyph glyph-name="uni042E" unicode="&#x42e;" horiz-adv-x="621" 
d="M322 -5c-102 0 -140 71 -113 168l42 144h-94l-87 -307h-93l200 700h93l-88 -307h93l45 157c31 111 83 155 172 155h42c101 0 140 -71 112 -167l-110 -388c-32 -111 -84 -155 -173 -155h-41zM343 81h31c37 0 55 21 69 69l115 401c13 45 -2 68 -45 68h-32
c-37 0 -55 -20 -69 -69l-114 -401c-13 -45 2 -68 45 -68z" />
    <glyph glyph-name="uni042F" unicode="&#x42f;" horiz-adv-x="420" 
d="M-64 0l199 311c-41 27 -53 79 -34 146l25 88c32 111 89 155 175 155h186l-200 -700h-92l81 285h-59l-181 -285h-100zM235 369h65l71 247h-80c-39 0 -58 -20 -72 -69l-32 -110c-12 -45 3 -68 48 -68z" />
    <glyph glyph-name="uni0430" unicode="&#x430;" horiz-adv-x="371" 
d="M76 -5c-78 0 -107 61 -83 146l6 23c27 91 68 113 138 138l98 35c13 5 21 14 24 26l18 60c10 38 -1 57 -37 57h-19c-32 0 -48 -17 -60 -57l-17 -61h-81l17 58c27 94 73 135 152 135h29c86 0 124 -57 99 -146l-117 -409h-60v51c-30 -36 -66 -56 -98 -56h-9zM109 76h24
c30 0 51 23 62 60l37 131l-85 -33c-39 -15 -51 -37 -61 -70l-9 -32c-11 -38 0 -56 32 -56z" />
    <glyph glyph-name="uni0431" unicode="&#x431;" horiz-adv-x="395" 
d="M108 -5c-86 0 -126 58 -100 146l115 402c26 95 73 136 154 136h72c18 0 24 6 28 19l2 7h88l-2 -8c-20 -67 -57 -96 -125 -96h-73c-32 0 -48 -17 -59 -57l-19 -68c28 31 59 46 89 46h11c78 0 113 -58 88 -146l-70 -245c-27 -95 -73 -136 -154 -136h-45zM131 77h29
c32 0 47 17 59 57l72 252c10 36 -2 54 -38 54h-29c-31 0 -48 -20 -59 -57l-71 -251c-10 -37 2 -55 37 -55z" />
    <glyph glyph-name="uni0432" unicode="&#x432;" horiz-adv-x="367" 
d="M-28 0l157 550h136c86 0 125 -58 102 -139l-9 -32c-16 -58 -41 -93 -76 -112c25 -23 33 -58 21 -101l-9 -30c-27 -95 -74 -136 -154 -136h-168zM143 308h66c32 0 47 17 60 59l14 50c11 38 -2 57 -39 57h-54zM77 77h70c32 0 47 16 58 57l15 51c10 37 -2 55 -37 55h-59z
" />
    <glyph glyph-name="uni0433" unicode="&#x433;" horiz-adv-x="299" 
d="M-28 0l157 550h230l-23 -82h-141l-134 -468h-89z" />
    <glyph glyph-name="uni0491" unicode="&#x491;" horiz-adv-x="299" 
d="M-28 0l157 550h145l49 90h62l-49 -172h-141l-134 -468h-89z" />
    <glyph glyph-name="uni0434" unicode="&#x434;" horiz-adv-x="405" 
d="M286 -90h-64l8 90h-207l-55 -90h-62l49 172h37c24 44 53 120 85 226l74 242h274l-134 -468h44zM75 80h126l112 391h-98l-53 -171c-21 -66 -53 -158 -87 -220z" />
    <glyph glyph-name="uni0435" unicode="&#x435;" horiz-adv-x="379" 
d="M107 -5c-86 0 -125 58 -100 146l80 279c27 94 74 135 154 135h37c84 0 122 -58 97 -146l-47 -164h-203l-33 -116c-11 -36 1 -54 36 -54h22c32 0 46 17 58 57l14 48h86l-14 -49c-27 -95 -72 -136 -151 -136h-36zM145 316h115l30 105c11 36 -1 54 -35 54h-23
c-31 0 -46 -16 -58 -57z" />
    <glyph glyph-name="uni0451" unicode="&#x451;" horiz-adv-x="379" 
d="M159 602l29 103h87l-29 -103h-87zM290 602l29 103h87l-29 -103h-87zM107 -5c-86 0 -125 58 -100 146l80 279c27 94 74 135 154 135h37c84 0 122 -58 97 -146l-47 -164h-203l-33 -116c-11 -36 1 -54 36 -54h22c32 0 46 17 58 57l14 48h86l-14 -49
c-27 -95 -72 -136 -151 -136h-36zM145 316h115l30 105c11 36 -1 54 -35 54h-23c-31 0 -46 -16 -58 -57z" />
    <glyph glyph-name="uni0436" unicode="&#x436;" horiz-adv-x="563" 
d="M-28 0l157 550h89l-67 -234h97l67 234h89l-67 -234h97l67 234h89l-157 -550h-89l67 234h-97l-67 -234h-89l67 234h-97l-67 -234h-89z" />
    <glyph glyph-name="uni0437" unicode="&#x437;" horiz-adv-x="349" 
d="M86 -5c-84 0 -123 58 -98 146l16 52h87l-18 -62c-11 -37 1 -56 35 -56h23c32 0 47 17 58 57l14 49c11 37 -1 55 -37 55h-48l22 78h57c32 0 48 17 60 58l13 47c11 38 -1 56 -36 56h-22c-30 0 -44 -16 -56 -57l-17 -61h-88l18 63c27 94 73 135 152 135h34
c84 0 124 -58 99 -146l-7 -25c-17 -59 -41 -95 -82 -113c28 -24 36 -58 23 -100l-11 -40c-27 -95 -73 -136 -153 -136h-38z" />
    <glyph glyph-name="uni0438" unicode="&#x438;" horiz-adv-x="406" 
d="M-28 0l157 550h87l-50 -174l-58 -182h4l238 356h85l-157 -550h-86l50 175l58 182h-5l-238 -357h-85z" />
    <glyph glyph-name="uni0439" unicode="&#x439;" horiz-adv-x="406" 
d="M288 603c-60 0 -82 40 -66 95l1 7h67l-4 -16c-7 -23 0 -31 19 -31h20c17 0 25 9 32 33l4 14h67l-4 -14c-17 -63 -48 -88 -101 -88h-35zM-28 0l157 550h87l-50 -174l-58 -182h4l238 356h85l-157 -550h-86l50 175l58 182h-5l-238 -357h-85z" />
    <glyph glyph-name="uni043A" unicode="&#x43a;" horiz-adv-x="374" 
d="M-28 0l158 550h89l-67 -234h49l138 234h90l-160 -270l4 -280h-87v234h-58l-67 -234h-89z" />
    <glyph glyph-name="uni043B" unicode="&#x43b;" horiz-adv-x="408" 
d="M-45 -2l-21 2l23 82h19c38 0 45 18 116 248l68 220h275l-157 -550h-89l134 468h-102l-53 -171c-25 -82 -44 -146 -63 -194c-29 -72 -67 -111 -150 -105z" />
    <glyph glyph-name="uni043C" unicode="&#x43c;" horiz-adv-x="502" 
d="M-26 0l158 550h89l19 -311l189 311h100l-157 -550h-86l52 181l61 197h-4l-171 -287h-46l-11 286h-4l-50 -196l-52 -181h-87z" />
    <glyph glyph-name="uni043D" unicode="&#x43d;" horiz-adv-x="403" 
d="M-28 0l157 550h89l-67 -234h124l67 234h89l-157 -550h-89l67 234h-124l-67 -234h-89z" />
    <glyph glyph-name="uni043E" unicode="&#x43e;" horiz-adv-x="393" 
d="M108 -5c-86 0 -126 58 -101 146l80 279c27 94 74 135 155 135h47c86 0 125 -58 100 -146l-79 -278c-28 -95 -74 -136 -154 -136h-48zM131 75h31c32 0 47 17 59 57l82 289c11 36 -2 54 -37 54h-31c-32 0 -48 -16 -59 -57l-83 -288c-10 -37 2 -55 38 -55z" />
    <glyph glyph-name="uni043F" unicode="&#x43f;" horiz-adv-x="403" 
d="M-28 0l157 550h302l-157 -550h-89l134 468h-124l-134 -468h-89z" />
    <glyph glyph-name="uni0440" unicode="&#x440;" horiz-adv-x="402" 
d="M-72 -155l201 705h61v-52c32 39 68 57 105 57h10c78 0 114 -58 89 -146l-80 -278c-26 -89 -71 -136 -149 -136h-9c-41 0 -68 20 -82 50l-57 -200h-89zM138 77h29c32 0 47 17 59 57l80 283c11 38 -2 56 -39 56h-28c-32 0 -49 -22 -59 -57l-81 -282c-10 -38 2 -57 39 -57z
" />
    <glyph glyph-name="uni0441" unicode="&#x441;" horiz-adv-x="383" 
d="M107 -5c-86 0 -125 58 -100 146l80 279c27 94 74 135 154 135h37c84 0 122 -58 97 -146l-22 -79h-87l25 89c11 38 -2 56 -38 56h-19c-32 0 -47 -16 -58 -57l-82 -286c-11 -38 1 -57 38 -57h20c32 0 47 17 58 57l24 83h87l-24 -84c-27 -95 -73 -136 -153 -136h-37z" />
    <glyph glyph-name="uni0442" unicode="&#x442;" horiz-adv-x="326" 
d="M41 0l134 468h-104l23 82h297l-23 -82h-104l-134 -468h-89z" />
    <glyph glyph-name="uni0443" unicode="&#x443;" horiz-adv-x="353" 
d="M-74 -155l23 82h37c28 0 41 10 63 58l46 565h87l-29 -255l-29 -197h3l195 452h95l-274 -578c-40 -84 -84 -127 -158 -127h-59z" />
    <glyph glyph-name="uni045E" unicode="&#x45e;" horiz-adv-x="353" 
d="M258 603c-60 0 -82 40 -66 95l1 7h67l-4 -16c-7 -23 0 -31 19 -31h20c17 0 25 9 32 33l4 14h67l-4 -14c-17 -63 -48 -88 -101 -88h-35zM-74 -155l23 82h37c28 0 41 10 63 58l46 565h87l-29 -255l-29 -197h3l195 452h95l-274 -578c-40 -84 -84 -127 -158 -127h-59z" />
    <glyph glyph-name="uni0444" unicode="&#x444;" horiz-adv-x="574" 
d="M121 -155l57 201c-27 -33 -58 -51 -87 -51h-10c-71 0 -99 59 -74 145l81 281c24 88 72 134 142 134h4c39 0 62 -21 75 -51l57 201h89l-57 -201c27 33 58 51 87 51h10c71 0 98 -58 73 -145l-80 -281c-25 -87 -72 -134 -141 -134h-4c-39 0 -63 21 -76 51l-57 -201h-89z
M124 77h21c31 0 49 26 58 57l81 283c11 39 -3 56 -33 56h-21c-26 0 -43 -16 -55 -57l-81 -282c-10 -38 -1 -57 30 -57zM325 77h21c26 0 43 17 55 57l80 283c11 38 1 56 -30 56h-20c-32 0 -49 -25 -58 -57l-81 -282c-11 -40 3 -57 33 -57z" />
    <glyph glyph-name="uni0445" unicode="&#x445;" horiz-adv-x="356" 
d="M-66 0l200 292l-38 258h85l22 -195h3l123 195h92l-188 -276l33 -274h-84l-20 200h-4l-128 -200h-96z" />
    <glyph glyph-name="uni0447" unicode="&#x447;" horiz-adv-x="372" 
d="M154 0l62 218h-54c-88 0 -129 59 -103 149l53 183h89l-56 -194c-11 -38 2 -56 39 -56h55l71 250h89l-156 -550h-89z" />
    <glyph glyph-name="uni0446" unicode="&#x446;" horiz-adv-x="406" 
d="M225 -90l8 90h-261l158 550h89l-134 -468h120l134 468h89l-134 -468h44l-49 -172h-64z" />
    <glyph glyph-name="uni0448" unicode="&#x448;" horiz-adv-x="562" 
d="M-28 0l157 550h89l-134 -468h97l134 468h89l-134 -468h97l134 468h89l-157 -550h-461z" />
    <glyph glyph-name="uni0449" unicode="&#x449;" horiz-adv-x="567" 
d="M387 -90l8 90h-423l157 550h89l-134 -468h97l134 468h89l-134 -468h97l134 468h89l-134 -468h45l-49 -172h-65z" />
    <glyph glyph-name="uni044C" unicode="&#x44c;" horiz-adv-x="362" 
d="M-28 0l157 550h89l-63 -223h51c86 0 125 -58 100 -146l-13 -45c-27 -95 -74 -136 -154 -136h-167zM83 79h62c32 0 48 16 59 57l16 56c11 38 -2 57 -39 57h-49z" />
    <glyph glyph-name="uni044A" unicode="&#x44a;" horiz-adv-x="414" 
d="M24 0l134 468h-88l23 82h177l-64 -223h51c86 0 126 -58 100 -146l-12 -45c-27 -95 -74 -136 -155 -136h-166zM135 79h62c32 0 47 16 59 57l15 56c11 38 -2 57 -39 57h-48z" />
    <glyph glyph-name="uni044B" unicode="&#x44b;" horiz-adv-x="553" 
d="M-28 0l157 550h89l-63 -223h51c86 0 125 -58 100 -146l-13 -45c-27 -95 -74 -136 -154 -136h-167zM322 0l157 550h89l-157 -550h-89zM83 79h62c32 0 48 16 59 57l16 56c11 38 -2 57 -39 57h-49z" />
    <glyph glyph-name="uni0454" unicode="&#x454;" horiz-adv-x="364" 
d="M107 -5c-86 0 -125 58 -100 146l80 279c27 94 74 135 154 135h37c84 0 122 -58 97 -146l-15 -52h-87l17 62c11 38 -1 56 -36 56h-23c-32 0 -47 -16 -58 -57l-30 -103h103l-23 -79h-102l-30 -104c-11 -38 1 -57 38 -57h23c31 0 46 17 57 57l18 61h88l-18 -62
c-28 -95 -73 -136 -153 -136h-37z" />
    <glyph glyph-name="uni044D" unicode="&#x44d;" horiz-adv-x="366" 
d="M86 -5c-84 0 -123 58 -98 146l16 52h87l-18 -62c-11 -37 1 -56 35 -56h25c31 0 46 17 58 57l29 104h-102l22 79h103l30 104c11 38 -2 56 -38 56h-23c-31 0 -45 -16 -56 -57l-18 -61h-86l18 63c27 94 73 135 152 135h36c85 0 123 -58 98 -146l-79 -278
c-28 -95 -73 -136 -153 -136h-38z" />
    <glyph glyph-name="uni0456" unicode="&#x456;" horiz-adv-x="187" 
d="M142 602l29 103h93l-29 -103h-93zM-28 0l157 550h89l-157 -550h-89z" />
    <glyph glyph-name="uni0457" unicode="&#x457;" horiz-adv-x="203" 
d="M87 602l29 103h87l-29 -103h-87zM218 602l29 103h87l-29 -103h-87zM-21 0l157 550h89l-157 -550h-89z" />
    <glyph glyph-name="uni044E" unicode="&#x44e;" horiz-adv-x="557" 
d="M281 -5c-85 0 -123 58 -98 146l26 93h-81l-67 -234h-89l157 550h89l-67 -234h82l29 104c27 94 74 135 153 135h41c84 0 122 -58 97 -146l-79 -278c-27 -95 -73 -136 -152 -136h-41zM304 77h25c30 0 45 17 57 57l80 283c11 38 -1 56 -36 56h-25c-30 0 -45 -16 -57 -57
l-80 -282c-11 -38 1 -57 36 -57z" />
    <glyph glyph-name="uni044F" unicode="&#x44f;" horiz-adv-x="382" 
d="M-66 0l166 244c-31 24 -43 68 -27 123l14 48c26 94 73 135 154 135h166l-157 -550h-89l63 219h-50l-145 -219h-95zM195 290h49l52 182h-61c-32 0 -48 -16 -59 -57l-20 -68c-11 -38 2 -57 39 -57z" />
    <glyph glyph-name="zero" unicode="0" 
d="M125 -5c-101 0 -139 71 -111 168l110 387c32 111 83 155 172 155h38c101 0 139 -71 112 -167l-111 -388c-31 -111 -83 -155 -172 -155h-38zM142 81h33c37 0 55 21 69 69l115 405c12 42 -1 64 -42 64h-32c-38 0 -55 -20 -69 -69l-116 -404c-12 -43 2 -65 42 -65z" />
    <glyph glyph-name="one" unicode="1" horiz-adv-x="252" 
d="M17 0l177 618h-87l23 82h179l-200 -700h-92z" />
    <glyph glyph-name="two" unicode="2" horiz-adv-x="387" 
d="M-46 0l29 102c15 51 38 89 80 130l221 213c22 21 34 40 41 66l13 44c12 42 0 64 -38 64h-30c-36 0 -53 -20 -67 -69l-17 -60h-89l17 60c31 111 82 155 170 155h33c98 0 135 -71 107 -167l-7 -26c-13 -46 -33 -79 -72 -116l-226 -218c-21 -21 -33 -39 -40 -65l-8 -25h225
l-25 -88h-317z" />
    <glyph glyph-name="three" unicode="3" horiz-adv-x="396" 
d="M112 -5c-99 0 -136 71 -108 168l24 85h89l-29 -104c-12 -42 0 -63 38 -63h28c35 0 52 21 66 69l25 90c13 45 -1 68 -42 68h-46l25 85h54c36 0 54 20 68 69l26 91c12 44 0 66 -37 66h-24c-35 0 -52 -20 -66 -69l-24 -83h-89l24 83c31 111 82 155 169 155h28
c97 0 133 -71 106 -167l-21 -74c-19 -68 -45 -102 -87 -118c30 -26 40 -65 25 -118l-22 -78c-32 -111 -83 -155 -170 -155h-30z" />
    <glyph glyph-name="four" unicode="4" horiz-adv-x="398" 
d="M151 0l43 152h-218l21 74l337 474h105l-133 -464h65l-24 -84h-65l-43 -152h-88zM92 236h126l45 156l50 155h-3z" />
    <glyph glyph-name="five" unicode="5" horiz-adv-x="394" 
d="M117 -5c-100 0 -138 71 -110 168l20 70h88l-25 -87c-12 -43 1 -65 42 -65h32c36 0 52 21 66 69l54 189c12 43 0 65 -39 65h-30c-37 0 -50 -18 -66 -54h-85l112 350h284l-25 -88h-204l-56 -169c28 26 60 41 90 41h14c81 0 120 -61 94 -154l-51 -180
c-32 -111 -82 -155 -169 -155h-36z" />
    <glyph glyph-name="six" unicode="6" horiz-adv-x="404" 
d="M126 -5c-101 0 -139 71 -111 168l111 387c31 111 82 155 171 155h31c98 0 134 -71 106 -167l-10 -37h-88l15 54c12 42 0 64 -38 64h-29c-37 0 -55 -20 -69 -69l-40 -142c25 26 52 39 81 39h22c83 0 121 -61 95 -154l-41 -143c-31 -111 -83 -155 -172 -155h-34zM142 81h30
c38 0 55 21 69 69l43 153c13 42 -1 64 -41 64h-30c-38 0 -56 -20 -70 -69l-43 -152c-12 -43 1 -65 42 -65z" />
    <glyph glyph-name="seven" unicode="7" horiz-adv-x="353" 
d="M-28 0l360 612h-225l25 88h317l-19 -68l-363 -632h-95z" />
    <glyph glyph-name="eight" unicode="8" 
d="M123 -5c-101 0 -139 71 -111 168l20 71c21 73 49 106 95 121c-29 26 -37 64 -22 115l23 80c32 112 83 155 172 155h31c101 0 139 -71 111 -167l-20 -72c-19 -69 -46 -103 -88 -121c31 -24 42 -61 26 -115l-23 -80c-31 -111 -83 -155 -172 -155h-42zM231 390h31
c37 0 55 20 69 69l29 101c12 42 -2 64 -42 64h-31c-37 0 -55 -20 -69 -69l-29 -101c-12 -42 2 -64 42 -64zM140 81h37c37 0 55 21 69 69l27 96c12 43 -1 65 -42 65h-36c-38 0 -56 -21 -69 -69l-28 -96c-12 -43 2 -65 42 -65z" />
    <glyph glyph-name="nine" unicode="9" horiz-adv-x="404" 
d="M120 -5c-97 0 -134 71 -106 168l11 37h88l-16 -54c-12 -43 1 -65 39 -65h28c38 0 55 21 69 69l41 143c-25 -27 -52 -40 -82 -40h-21c-84 0 -122 62 -95 155l40 142c32 111 83 155 172 155h35c100 0 138 -71 110 -167l-110 -388c-32 -111 -83 -155 -171 -155h-32zM206 333
h30c37 0 55 21 69 69l44 153c12 42 -2 64 -42 64h-31c-37 0 -55 -20 -69 -69l-43 -152c-13 -43 1 -65 42 -65z" />
    <glyph glyph-name="zero.osf" 
d="M125 -5c-101 0 -139 71 -111 168l67 237c32 111 84 155 173 155h38c101 0 138 -71 111 -167l-68 -238c-31 -111 -83 -155 -172 -155h-38zM142 81h33c37 0 55 21 69 69l72 255c12 42 -1 64 -41 64h-33c-37 0 -55 -20 -69 -69l-73 -254c-12 -43 2 -65 42 -65z" />
    <glyph glyph-name="one.osf" horiz-adv-x="252" 
d="M17 0l134 468h-87l23 82h179l-157 -550h-92z" />
    <glyph glyph-name="two.osf" horiz-adv-x="395" 
d="M-35 0l15 54c16 54 37 98 84 132l195 136c25 18 35 45 41 66l7 27c12 42 -2 54 -40 54h-30c-35 0 -52 -20 -66 -69l-17 -60h-89l17 60c32 111 83 155 170 155h32c99 0 140 -59 111 -152l-5 -17c-10 -34 -34 -88 -85 -124l-187 -131c-10 -7 -22 -21 -31 -43h218l-25 -88
h-315z" />
    <glyph glyph-name="three.osf" horiz-adv-x="390" 
d="M69 -155c-99 0 -136 71 -109 168l24 85h90l-29 -105c-12 -41 0 -62 38 -62h28c35 0 52 20 66 69l25 90c13 45 -1 68 -42 68h-46l25 85h54c36 0 54 20 68 69l26 91c12 44 0 66 -37 66h-24c-35 0 -52 -20 -66 -69l-24 -83h-89l24 83c31 111 82 155 169 155h28
c97 0 133 -71 106 -167l-21 -74c-19 -68 -45 -102 -87 -118c30 -26 40 -65 25 -118l-22 -78c-32 -111 -83 -155 -170 -155h-30z" />
    <glyph glyph-name="four.osf" horiz-adv-x="383" 
d="M101 -150l45 152h-218l22 74l341 474h105l-137 -464h65l-25 -84h-65l-45 -152h-88zM45 86h126l46 156l52 155h-3z" />
    <glyph glyph-name="five.osf" horiz-adv-x="392" 
d="M74 -155c-101 0 -138 71 -111 168l20 70h89l-25 -88c-12 -42 1 -64 42 -64h32c36 0 52 20 66 69l54 189c12 43 0 65 -39 65h-30c-37 0 -50 -18 -66 -54h-85l112 350h284l-25 -88h-204l-56 -169c28 26 60 41 90 41h14c81 0 120 -61 94 -154l-51 -180
c-32 -111 -82 -155 -169 -155h-36z" />
    <glyph glyph-name="six.osf" horiz-adv-x="414" 
d="M125 -5c-100 0 -138 71 -110 168l110 387c32 111 83 155 171 155h32c97 0 133 -71 106 -167l-11 -37h-88l16 54c12 42 -1 64 -39 64h-28c-38 0 -55 -20 -69 -69l-41 -142c25 26 52 39 82 39h21c84 0 122 -61 95 -154l-40 -143c-32 -111 -83 -155 -172 -155h-35zM141 81
h31c37 0 55 21 69 69l43 153c13 42 -1 64 -42 64h-30c-37 0 -55 -20 -69 -69l-44 -152c-12 -43 2 -65 42 -65z" />
    <glyph glyph-name="seven.osf" horiz-adv-x="347" 
d="M-81 -150l360 612h-225l25 88h317l-19 -68l-363 -632h-95z" />
    <glyph glyph-name="eight.osf" horiz-adv-x="410" 
d="M120 -5c-101 0 -140 71 -112 168l21 71c20 73 48 106 95 121c-29 26 -37 64 -22 115l22 80c32 112 83 155 172 155h31c101 0 139 -71 112 -167l-21 -72c-19 -69 -45 -103 -87 -121c31 -24 41 -61 25 -115l-22 -80c-32 -111 -83 -155 -172 -155h-42zM228 390h30
c38 0 56 20 69 69l29 101c12 42 -1 64 -42 64h-30c-38 0 -55 -20 -69 -69l-29 -101c-12 -42 1 -64 42 -64zM137 81h36c38 0 55 21 69 69l28 96c12 43 -2 65 -42 65h-37c-37 0 -55 -21 -69 -69l-27 -96c-12 -43 1 -65 42 -65z" />
    <glyph glyph-name="nine.osf" horiz-adv-x="407" 
d="M80 -155c-98 0 -134 71 -106 168l10 37h89l-16 -55c-12 -42 1 -64 39 -64h28c38 0 55 20 69 69l41 143c-25 -27 -52 -40 -82 -40h-21c-84 0 -122 62 -95 155l40 142c32 111 83 155 172 155h35c100 0 138 -71 110 -167l-110 -388c-32 -111 -83 -155 -171 -155h-32z
M166 183h30c37 0 55 21 69 69l44 153c12 42 -2 64 -42 64h-31c-37 0 -55 -20 -69 -69l-43 -152c-13 -43 1 -65 42 -65z" />
    <glyph glyph-name="zero.tf" horiz-adv-x="417" 
d="M125 -5c-101 0 -139 71 -111 168l110 387c32 111 83 155 172 155h38c101 0 139 -71 112 -167l-111 -388c-31 -111 -83 -155 -172 -155h-38zM142 81h33c37 0 55 21 69 69l115 405c12 42 -1 64 -42 64h-32c-38 0 -55 -20 -69 -69l-116 -404c-12 -43 2 -65 42 -65z" />
    <glyph glyph-name="one.tf" 
d="M-25 0l23 82h114l154 536h-114l23 82h206l-177 -618h114l-23 -82h-320z" />
    <glyph glyph-name="two.tf" 
d="M-26 0l29 102c15 51 38 89 80 130l221 213c21 21 33 40 41 66l12 44c12 42 0 64 -38 64h-29c-36 0 -53 -20 -67 -69l-17 -60h-90l17 60c32 111 83 155 171 155h32c99 0 135 -71 108 -167l-8 -26c-13 -46 -33 -79 -71 -116l-226 -218c-22 -21 -33 -39 -41 -65l-7 -25h224
l-25 -88h-316z" />
    <glyph glyph-name="three.tf" horiz-adv-x="426" 
d="M120 -5c-99 0 -137 71 -109 168l24 85h90l-30 -104c-12 -42 1 -63 38 -63h29c35 0 51 21 65 69l26 90c13 45 -1 68 -43 68h-46l25 85h55c36 0 53 20 67 69l26 91c13 44 0 66 -37 66h-24c-35 0 -52 -20 -66 -69l-23 -83h-89l23 83c32 111 82 155 170 155h27
c98 0 133 -71 106 -167l-20 -74c-19 -68 -45 -102 -88 -118c30 -26 40 -65 25 -118l-22 -78c-31 -111 -82 -155 -170 -155h-29z" />
    <glyph glyph-name="four.tf" 
d="M162 0l43 152h-225l21 74l344 474h105l-133 -464h67l-24 -84h-67l-43 -152h-88zM96 236h133l45 156l50 155h-3z" />
    <glyph glyph-name="five.tf" 
d="M127 -5c-100 0 -138 71 -110 168l20 70h88l-25 -87c-12 -43 2 -65 42 -65h33c35 0 52 21 66 69l54 189c12 43 -1 65 -39 65h-30c-38 0 -50 -18 -66 -54h-86l113 350h284l-25 -88h-205l-56 -169c29 26 61 41 91 41h14c81 0 120 -61 93 -154l-51 -180
c-31 -111 -82 -155 -169 -155h-36z" />
    <glyph glyph-name="six.tf" 
d="M128 -5c-100 0 -138 71 -110 168l110 387c32 111 83 155 171 155h32c97 0 133 -71 106 -167l-11 -37h-88l16 54c12 42 -1 64 -39 64h-28c-38 0 -55 -20 -69 -69l-41 -142c25 26 52 39 82 39h21c84 0 122 -61 95 -154l-40 -143c-32 -111 -83 -155 -172 -155h-35zM144 81
h31c37 0 55 21 69 69l43 153c13 42 -1 64 -42 64h-30c-37 0 -55 -20 -69 -69l-44 -152c-12 -43 2 -65 42 -65z" />
    <glyph glyph-name="seven.tf" 
d="M-4 0l389 612h-257l25 88h356l-19 -68l-394 -632h-100z" />
    <glyph glyph-name="eight.tf" 
d="M123 -5c-101 0 -139 71 -111 168l20 71c21 73 49 106 95 121c-29 26 -37 64 -22 115l23 80c32 112 83 155 172 155h31c101 0 139 -71 111 -167l-20 -72c-19 -69 -46 -103 -88 -121c31 -24 42 -61 26 -115l-23 -80c-31 -111 -83 -155 -172 -155h-42zM231 390h31
c37 0 55 20 69 69l29 101c12 42 -2 64 -42 64h-31c-37 0 -55 -20 -69 -69l-29 -101c-12 -42 2 -64 42 -64zM140 81h37c37 0 55 21 69 69l27 96c12 43 -1 65 -42 65h-36c-38 0 -56 -21 -69 -69l-28 -96c-12 -43 2 -65 42 -65z" />
    <glyph glyph-name="nine.tf" 
d="M129 -5c-98 0 -134 71 -106 168l10 37h88l-15 -54c-12 -43 0 -65 38 -65h29c37 0 55 21 69 69l40 143c-25 -27 -52 -40 -81 -40h-22c-83 0 -121 62 -95 155l41 142c31 111 83 155 172 155h34c101 0 138 -71 111 -167l-111 -388c-31 -111 -82 -155 -171 -155h-31zM214 333
h30c38 0 56 21 70 69l43 153c12 42 -1 64 -42 64h-30c-38 0 -55 -20 -69 -69l-43 -152c-13 -43 1 -65 41 -65z" />
    <glyph glyph-name="zero.tosf" 
d="M125 -5c-101 0 -139 71 -111 168l67 237c32 111 84 155 173 155h38c101 0 138 -71 111 -167l-68 -238c-31 -111 -83 -155 -172 -155h-38zM142 81h33c37 0 55 21 69 69l72 255c12 42 -1 64 -41 64h-33c-37 0 -55 -20 -69 -69l-73 -254c-12 -43 2 -65 42 -65z" />
    <glyph glyph-name="one.tosf" 
d="M-26 0l23 82h115l115 386h-114l24 82h205l-139 -468h115l-24 -82h-320z" />
    <glyph glyph-name="two.tosf" 
d="M-25 0l15 54c16 54 36 98 84 132l194 136c25 18 35 45 41 66l8 27c12 42 -3 54 -41 54h-29c-35 0 -52 -20 -66 -69l-17 -60h-90l17 60c32 111 83 155 170 155h33c98 0 138 -58 111 -152l-5 -17c-10 -34 -34 -88 -85 -124l-187 -131c-10 -7 -23 -21 -31 -43h218l-25 -88
h-315z" />
    <glyph glyph-name="three.tosf" 
d="M73 -155c-99 0 -135 71 -107 168l25 85h90l-31 -105c-12 -41 0 -62 38 -62h28c35 0 52 20 67 69l26 90c13 45 0 68 -42 68h-46l26 85h54c36 0 54 20 69 69l27 91c13 44 1 66 -36 66h-24c-35 0 -53 -20 -67 -69l-25 -83h-89l25 83c32 111 83 155 171 155h27
c98 0 132 -71 104 -167l-21 -74c-19 -68 -46 -102 -89 -118c31 -26 40 -65 24 -118l-22 -78c-33 -111 -85 -155 -172 -155h-30z" />
    <glyph glyph-name="four.tosf" 
d="M122 -150l44 152h-225l22 74l348 474h105l-137 -464h67l-25 -84h-66l-45 -152h-88zM58 86h133l46 156l53 155h-4z" />
    <glyph glyph-name="five.tosf" 
d="M84 -155c-101 0 -137 71 -109 168l21 70h88l-25 -88c-13 -42 0 -64 41 -64h32c36 0 53 20 67 69l56 189c13 43 0 65 -38 65h-30c-38 0 -50 -18 -67 -54h-86l116 350h284l-25 -88h-205l-57 -169c28 26 60 41 90 41h14c81 0 120 -61 92 -154l-52 -180
c-33 -111 -84 -155 -171 -155h-36z" />
    <glyph glyph-name="six.tosf" 
d="M126 -5c-101 0 -138 71 -109 168l115 387c32 111 84 155 172 155h32c97 0 132 -71 104 -167l-11 -37h-88l16 54c13 42 1 64 -37 64h-29c-37 0 -56 -20 -70 -69l-42 -142c25 26 52 39 82 39h21c84 0 122 -61 94 -154l-42 -143c-33 -111 -85 -155 -174 -155h-34zM143 81h30
c38 0 56 21 70 69l45 153c13 42 -1 64 -41 64h-30c-38 0 -56 -20 -70 -69l-45 -152c-13 -43 0 -65 41 -65z" />
    <glyph glyph-name="seven.tosf" 
d="M-61 -150l395 612h-256l25 88h356l-20 -68l-400 -632h-100z" />
    <glyph glyph-name="eight.tosf" 
d="M123 -5c-101 0 -139 71 -110 168l21 71c21 73 50 106 96 121c-28 25 -36 64 -20 115l23 80c33 112 85 155 174 155h31c101 0 138 -71 109 -167l-21 -72c-19 -69 -46 -103 -88 -121c30 -24 40 -61 24 -115l-23 -80c-33 -111 -85 -155 -174 -155h-42zM235 390h30
c38 0 56 20 70 69l30 101c13 42 0 64 -41 64h-30c-38 0 -56 -20 -70 -69l-30 -101c-13 -42 0 -64 41 -64zM141 81h36c38 0 56 21 70 69l28 96c13 43 0 65 -41 65h-36c-38 0 -56 -21 -70 -69l-28 -96c-13 -43 0 -65 41 -65z" />
    <glyph glyph-name="nine.tosf" 
d="M78 -155c-98 0 -133 71 -105 168l11 37h89l-17 -55c-12 -42 0 -64 38 -64h28c38 0 56 20 70 69l42 143c-24 -27 -52 -40 -81 -40h-22c-83 0 -121 62 -94 155l42 142c33 111 85 155 174 155h35c100 0 137 -71 108 -167l-114 -388c-33 -111 -84 -155 -173 -155h-31z
M167 183h30c37 0 55 21 70 69l45 153c13 42 -1 64 -41 64h-31c-37 0 -55 -20 -70 -69l-44 -152c-13 -43 0 -65 41 -65z" />
    <glyph glyph-name="period" unicode="." horiz-adv-x="202" 
d="M-28 0l32 110h101l-32 -110h-101z" />
    <glyph glyph-name="comma" unicode="," horiz-adv-x="201" 
d="M-54 -86l58 195h99l-82 -195h-75z" />
    <glyph glyph-name="colon" unicode=":" horiz-adv-x="213" 
d="M102 440l33 110h101l-33 -110h-101zM-28 1l33 110h101l-33 -110h-101z" />
    <glyph glyph-name="semicolon" unicode=";" horiz-adv-x="213" 
d="M102 440l33 110h101l-33 -110h-101zM-54 -86l58 195h99l-82 -195h-75z" />
    <glyph glyph-name="ellipsis" unicode="&#x2026;" horiz-adv-x="571" 
d="M-28 0l32 110h101l-32 -110h-101zM157 0l32 110h101l-32 -110h-101zM342 0l32 110h101l-32 -110h-101z" />
    <glyph glyph-name="exclam" unicode="!" horiz-adv-x="243" 
d="M62 203l147 497h104l-180 -497h-71zM-8 0l32 110h101l-32 -110h-101z" />
    <glyph glyph-name="exclamdown" unicode="&#xa1;" horiz-adv-x="256" 
d="M133 440l31 110h101l-31 -110h-101zM-49 -150l175 497h71l-142 -497h-104z" />
    <glyph glyph-name="question" unicode="?" horiz-adv-x="368" 
d="M92 190l15 48c14 51 33 87 75 126l88 86c24 24 34 39 42 65l12 41c13 43 2 65 -30 65h-25c-35 0 -53 -21 -67 -69l-18 -62h-87l18 60c32 111 81 155 170 155h26c93 0 127 -71 99 -167l-5 -17c-14 -46 -35 -78 -72 -115l-94 -90c-25 -22 -39 -44 -53 -82l-15 -44h-79z
M35 0l32 110h101l-32 -110h-101z" />
    <glyph glyph-name="questiondown" unicode="&#xbf;" horiz-adv-x="376" 
d="M197 440l32 110h101l-32 -110h-101zM61 -155c-94 0 -129 71 -102 168l5 17c13 46 34 78 72 114l92 90c25 22 39 44 52 83l15 43h79l-14 -48c-14 -51 -32 -87 -74 -126l-88 -85c-23 -24 -33 -40 -40 -66l-12 -41c-12 -43 -1 -65 31 -65h25c35 0 52 21 66 69l17 62h87
l-17 -60c-31 -111 -79 -155 -169 -155h-25z" />
    <glyph glyph-name="periodcentered" unicode="&#xb7;" horiz-adv-x="213" 
d="M48 255l32 110h101l-32 -110h-101z" />
    <glyph glyph-name="bullet" unicode="&#x2022;" horiz-adv-x="400" 
d="M202 210c-57 0 -100 43 -100 100c0 58 43 100 100 100c58 0 100 -42 100 -100c0 -57 -42 -100 -100 -100z" />
    <glyph glyph-name="asterisk" unicode="*" horiz-adv-x="251" 
d="M163 499l28 71l-68 -37l-14 44l76 24l-59 36l34 41l47 -47l16 72h49l-28 -72l68 37l14 -43l-77 -25l61 -35l-34 -41l-50 46l-14 -71h-49z" />
    <glyph glyph-name="numbersign" unicode="#" 
d="M17 0l48 162h-62l24 82h62l63 212h-62l23 82h63l48 162h79l-48 -162h67l48 162h79l-48 -162h62l-23 -82h-63l-63 -212h63l-24 -82h-63l-48 -162h-79l48 162h-67l-48 -162h-79zM168 244h67l63 212h-67z" />
    <glyph glyph-name="slash" unicode="/" horiz-adv-x="280" 
d="M-92 -155l412 955h66l-412 -955h-66z" />
    <glyph glyph-name="backslash" unicode="\" horiz-adv-x="280" 
d="M53 -155l132 955h59l-132 -955h-59z" />
    <glyph glyph-name="parenleft" unicode="(" horiz-adv-x="258" 
d="M88 -155c-89 0 -126 55 -99 146l202 681c25 86 77 128 157 128h44l-21 -71h-40c-31 0 -50 -17 -60 -49l-210 -713c-11 -34 1 -51 35 -51h35l-21 -71h-22z" />
    <glyph glyph-name="parenright" unicode=")" horiz-adv-x="258" 
d="M-104 -155l20 71h40c31 0 51 17 61 49l210 713c11 34 -1 51 -35 51h-35l21 71h22c88 0 125 -55 99 -146l-202 -681c-25 -86 -77 -128 -157 -128h-44z" />
    <glyph glyph-name="braceleft" unicode="{" horiz-adv-x="258" 
d="M102 -155c-88 0 -125 55 -98 146l81 275c6 20 -1 29 -21 29h-18l20 71h22c21 0 30 13 37 36l80 270c26 86 77 128 157 128h41l-21 -71h-36c-31 0 -51 -17 -61 -49l-76 -258c-15 -52 -33 -78 -60 -95c16 -21 18 -50 6 -89l-80 -271c-10 -34 2 -51 36 -51h31l-21 -71h-19z
" />
    <glyph glyph-name="braceright" unicode="}" horiz-adv-x="266" 
d="M-104 -155l20 71h37c31 0 51 17 60 49l81 273c15 52 33 79 61 95c-17 22 -18 51 -7 90l76 255c10 34 -2 51 -36 51h-31l21 71h19c88 0 125 -55 98 -146l-77 -259c-6 -20 1 -29 21 -29h18l-20 -71h-22c-21 0 -30 -13 -37 -36l-84 -286c-26 -86 -77 -128 -158 -128h-40z
" />
    <glyph glyph-name="bracketleft" unicode="[" horiz-adv-x="258" 
d="M-54 -155l282 955h163l-20 -71h-86l-239 -813h84l-20 -71h-164z" />
    <glyph glyph-name="bracketright" unicode="]" horiz-adv-x="258" 
d="M-104 -155l20 71h86l240 813h-85l21 71h163l-282 -955h-163z" />
    <glyph glyph-name="hyphen" unicode="-" horiz-adv-x="286" 
d="M42 269l24 82h206l-24 -82h-206z" />
    <glyph glyph-name="endash" unicode="&#x2013;" horiz-adv-x="416" 
d="M42 269l24 82h336l-24 -82h-336z" />
    <glyph glyph-name="emdash" unicode="&#x2014;" horiz-adv-x="606" 
d="M42 269l24 82h526l-24 -82h-526z" />
    <glyph glyph-name="underscore" unicode="_" horiz-adv-x="306" 
d="M-124 -155l24 82h306l-23 -82h-307z" />
    <glyph glyph-name="quotesinglbase" unicode="&#x201a;" horiz-adv-x="201" 
d="M-54 -86l58 195h99l-82 -195h-75z" />
    <glyph glyph-name="quotedblbase" unicode="&#x201e;" horiz-adv-x="337" 
d="M-52 -86l58 195h99l-82 -195h-75zM99 -86l58 195h98l-82 -195h-74z" />
    <glyph glyph-name="quotedblleft" unicode="&#x201c;" horiz-adv-x="336" 
d="M103 510l82 195h74l-57 -195h-99zM254 510l82 195h74l-58 -195h-98z" />
    <glyph glyph-name="quotedblright" unicode="&#x201d;" horiz-adv-x="335" 
d="M110 510l57 195h99l-82 -195h-74zM260 510l58 195h98l-82 -195h-74z" />
    <glyph glyph-name="quoteleft" unicode="&#x2018;" horiz-adv-x="185" 
d="M99 512l82 195h74l-58 -195h-98z" />
    <glyph glyph-name="quoteright" unicode="&#x2019;" horiz-adv-x="190" 
d="M107 510l57 195h99l-82 -195h-74z" />
    <glyph glyph-name="guillemotleft" unicode="&#xab;" horiz-adv-x="363" 
d="M87 163l-36 122l17 57l90 115h82l-115 -151l34 -143h-72zM217 163l-36 122l17 57l90 115h82l-115 -151l34 -143h-72z" />
    <glyph glyph-name="guillemotright" unicode="&#xbb;" horiz-adv-x="368" 
d="M17 163l115 152l-34 142h72l35 -122l-16 -56l-90 -116h-82zM147 163l115 152l-34 142h72l35 -122l-16 -56l-90 -116h-82z" />
    <glyph glyph-name="guilsinglleft" unicode="&#x2039;" horiz-adv-x="233" 
d="M87 163l-36 122l17 57l90 115h82l-115 -151l34 -143h-72z" />
    <glyph glyph-name="guilsinglright" unicode="&#x203a;" horiz-adv-x="233" 
d="M17 163l115 152l-34 142h72l35 -122l-16 -56l-90 -116h-82z" />
    <glyph glyph-name="quotedbl" unicode="&#x22;" horiz-adv-x="321" 
d="M115 513l45 192h96l-66 -192h-75zM264 513l46 192h96l-67 -192h-75z" />
    <glyph glyph-name="quotesingle" unicode="'" horiz-adv-x="181" 
d="M120 513l45 192h96l-66 -192h-75z" />
    <glyph glyph-name="uni00A0" unicode="&#xa0;" horiz-adv-x="370" 
 />
    <glyph glyph-name="cent" unicode="&#xa2;" horiz-adv-x="440" 
d="M98 -5l19 66c-74 7 -106 63 -83 145l80 279c26 92 71 133 147 135h5l24 85h55l-24 -86c72 -7 104 -63 80 -145l-22 -79h-87l26 89c10 38 -2 56 -38 56h-19c-32 0 -47 -16 -59 -57l-81 -286c-11 -38 1 -57 37 -57h20c32 0 48 17 59 57l24 83h87l-24 -84
c-27 -92 -71 -134 -147 -136h-5l-19 -65h-55z" />
    <glyph glyph-name="dollar" unicode="$" horiz-adv-x="440" 
d="M85 -70l19 66c-91 8 -122 76 -96 167l24 84h92l-29 -101c-12 -42 3 -65 44 -65h30c39 0 57 21 71 69l7 26c10 36 5 71 -16 97l-86 106c-34 41 -44 100 -29 152l7 27c28 100 84 147 169 147h2l19 65h55l-20 -67c81 -11 111 -78 86 -164l-23 -81h-92l29 99
c11 38 -3 62 -43 62h-23c-35 0 -55 -22 -68 -65l-7 -25c-12 -41 -12 -70 13 -101l85 -106c39 -48 48 -105 33 -154l-6 -20c-31 -107 -81 -151 -168 -153h-5l-19 -65h-55z" />
    <glyph glyph-name="Euro" unicode="&#x20ac;" horiz-adv-x="440" 
d="M159 -5c-99 0 -136 71 -108 168l29 102h-66l17 60h66l14 50h-66l17 60h66l33 115c32 111 82 155 169 155h19c98 0 135 -71 108 -167l-17 -58h-88l21 71c13 45 -1 68 -42 68h-17c-35 0 -52 -20 -66 -69l-33 -115h138l-17 -60h-138l-14 -50h138l-17 -60h-138l-34 -116
c-13 -45 2 -68 42 -68h19c35 0 53 21 67 69l20 70h87l-19 -70c-32 -111 -83 -155 -170 -155h-20z" />
    <glyph glyph-name="uni20B4" unicode="&#x20b4;" 
d="M122 -5c-99 0 -139 60 -115 138l1 7c11 35 41 72 92 125h-72l18 60h112l48 50h-146l18 60h185l50 51c23 24 39 49 45 72l4 12c10 32 -4 49 -43 49h-22c-34 0 -56 -20 -70 -69l-16 -55h-90l17 55c31 107 88 155 173 155h27c99 0 139 -60 116 -137l-2 -8
c-12 -36 -38 -69 -92 -125h77l-17 -60h-118l-48 -50h151l-17 -60h-191l-50 -51c-18 -19 -38 -49 -45 -71l-4 -12c-10 -33 4 -50 43 -50h22c35 0 56 21 70 69l16 55h90l-16 -55c-32 -106 -89 -155 -174 -155h-27z" />
    <glyph glyph-name="uni20BD" unicode="&#x20bd;" horiz-adv-x="432" 
d="M4 0l52 174l-67 -1l18 62h66l15 48h-66l18 61h66l105 356h134c103 0 142 -71 114 -167l-28 -95c-33 -111 -86 -155 -177 -155h-79l-14 -48h138l-18 -60l-138 -1l-51 -174h-88zM200 367h70c39 0 58 21 73 69l32 110c14 45 -2 68 -46 68h-56z" />
    <glyph glyph-name="sterling" unicode="&#xa3;" 
d="M-30 0l24 83c37 8 46 39 63 97l42 140h-67l18 61h67l50 169c32 111 83 155 170 155h19c93 0 127 -71 98 -167l-21 -73h-84l27 86c13 45 1 68 -38 68h-16c-35 0 -53 -20 -67 -69l-50 -169h124l-18 -61h-124l-42 -140c-11 -36 -24 -71 -53 -97h158l51 95h63l-52 -178h-342z
" />
    <glyph glyph-name="yen" unicode="&#xa5;" horiz-adv-x="440" 
d="M92 0l36 124h-113l17 60h113l14 50h-113l17 60h101l-8 406h91l-2 -169l-9 -168h3l184 337h100l-242 -406h100l-17 -60h-113l-14 -50h113l-17 -60h-113l-35 -124h-93z" />
    <glyph glyph-name="plus" unicode="+" 
d="M134 147l37 126h-123l22 75h123l37 125h79l-37 -125h123l-22 -75h-123l-37 -126h-79z" />
    <glyph glyph-name="minus" unicode="&#x2212;" 
d="M48 272l22 76h325l-22 -76h-325z" />
    <glyph glyph-name="multiply" unicode="&#xd7;" 
d="M280 156l-70 99l-126 -97l-41 58l126 97l-72 102l62 48l72 -102l131 101l41 -58l-131 -101l70 -99z" />
    <glyph glyph-name="divide" unicode="&#xf7;" 
d="M204 421l32 107h99l-32 -107h-99zM42 272l22 76h336l-22 -76h-336zM108 93l31 106h99l-31 -106h-99z" />
    <glyph glyph-name="equal" unicode="=" horiz-adv-x="426" 
d="M67 350l22 76h325l-22 -76h-325zM23 194l21 76h325l-21 -76h-325z" />
    <glyph glyph-name="notequal" unicode="&#x2260;" 
d="M8 104l67 85h-64l22 76h102l71 90h-146l22 76h184l67 86h87l-67 -86h54l-22 -76h-92l-71 -90h136l-22 -76h-174l-67 -85h-87z" />
    <glyph glyph-name="greater" unicode="&#x3e;" 
d="M27 153l27 90l214 76l-169 76l22 77l269 -124l-21 -71z" />
    <glyph glyph-name="less" unicode="&#x3c;" 
d="M323 152l-269 125l21 70l342 125l-27 -91l-214 -76l169 -76z" />
    <glyph glyph-name="greaterequal" unicode="&#x2265;" 
d="M52 238l27 90l214 76l-169 76l22 77l269 -124l-21 -71zM15 107l22 76h301l-22 -76h-301z" />
    <glyph glyph-name="lessequal" unicode="&#x2264;" 
d="M350 238l-269 124l21 71l342 124l-27 -90l-214 -76l169 -76zM10 107l22 76h301l-22 -76h-301z" />
    <glyph glyph-name="plusminus" unicode="&#xb1;" 
d="M169 267l29 96h-124l22 75h123l29 95h78l-29 -95h124l-22 -75h-123l-29 -96h-78zM3 119l22 76h325l-22 -76h-325z" />
    <glyph glyph-name="approxequal" unicode="&#x2248;" 
d="M58 305l26 87c14 48 38 91 88 91c32 0 43 -8 68 -32l35 -34c20 -18 29 -31 43 -31c9 0 17 11 20 20l22 77h73l-26 -87c-14 -48 -39 -91 -88 -91c-33 0 -43 8 -67 32l-36 34c-22 21 -28 31 -43 31c-9 0 -17 -11 -19 -20l-23 -77h-73zM-4 95l26 87c14 48 38 91 88 91
c32 0 43 -8 68 -32l35 -34c20 -18 29 -31 43 -31c9 0 17 11 20 20l22 77h73l-26 -87c-14 -48 -39 -91 -88 -91c-33 0 -43 8 -67 32l-36 34c-22 21 -28 31 -43 31c-9 0 -17 -11 -19 -20l-23 -77h-73z" />
    <glyph glyph-name="asciitilde" unicode="~" horiz-adv-x="426" 
d="M37 240l25 87c14 48 37 91 87 91c32 0 43 -8 68 -32l36 -34c20 -18 29 -31 44 -31c9 0 16 11 18 20l22 77h73l-25 -87c-14 -48 -38 -91 -87 -91c-33 0 -43 8 -68 32l-36 34c-22 21 -28 31 -43 31c-9 0 -17 -11 -19 -20l-22 -77h-73z" />
    <glyph glyph-name="logicalnot" unicode="&#xac;" 
d="M245 128l42 144h-242l22 76h325l-65 -220h-82z" />
    <glyph glyph-name="asciicircum" unicode="^" 
d="M87 394l214 306h70l35 -306h-81l-18 194l-132 -194h-88z" />
    <glyph glyph-name="percent" unicode="%" horiz-adv-x="500" 
d="M161 412c-53 0 -77 36 -61 90l37 125c16 54 44 78 91 78h37c48 0 74 -37 59 -87l-37 -127c-17 -55 -45 -79 -91 -79h-35zM-43 0l562 700h68l-562 -700h-68zM177 469h21c14 0 22 7 27 25l38 129c5 17 0 26 -16 26h-20c-15 0 -23 -8 -28 -25l-39 -130c-5 -16 1 -25 17 -25z
M282 -5c-53 0 -77 36 -61 90l37 125c16 54 44 78 90 78h37c49 0 74 -37 60 -87l-38 -127c-16 -55 -44 -79 -91 -79h-34zM298 52h20c15 0 22 7 27 25l39 129c4 17 -1 26 -17 26h-20c-15 0 -23 -8 -28 -25l-38 -130c-5 -16 1 -25 17 -25z" />
    <glyph glyph-name="perthousand" unicode="&#x2030;" horiz-adv-x="735" 
d="M472 499c49 0 74 -37 60 -87l-38 -127c-11 -34 -25 -56 -46 -68c0 -5 -1 -11 -3 -16l-38 -127c-16 -55 -44 -79 -91 -79h-34c-53 0 -77 36 -61 90l37 125c1 4 3 8 4 12c-12 15 -15 36 -9 62l-228 -284h-68l336 418c11 39 30 62 57 71l169 211h68l-162 -201h10h37z
M406 418l-39 -130h14l37 124c3 11 2 19 -4 23c-3 -4 -6 -10 -8 -17zM345 77l39 129h-1c-10 -3 -21 -5 -33 -5h-33l-36 -124c-5 -16 1 -25 17 -25h20c15 0 22 7 27 25z" />
    <glyph glyph-name="at" unicode="@" horiz-adv-x="625" 
d="M112 -85c-109 0 -142 78 -114 172l113 383c33 113 88 155 179 155h227c109 0 142 -78 114 -172l-81 -274c-32 -109 -83 -150 -168 -150h-74v45c-26 -32 -58 -49 -86 -49h-7c-68 0 -93 53 -71 127l6 19c23 80 59 99 120 121l86 31c11 3 18 11 21 22l16 53
c10 32 0 49 -32 49h-16c-28 0 -42 -15 -52 -50l-16 -53h-70l14 50c25 82 65 118 134 118h25c75 0 108 -50 85 -127l-89 -300h26c37 0 68 34 82 82l84 286c22 74 -3 116 -68 116h-227c-46 0 -80 -33 -99 -99l-113 -383c-22 -74 3 -116 68 -116h215l-17 -56h-215zM244 95h21
c26 0 44 20 54 53l34 114l-75 -30c-33 -12 -45 -31 -53 -60l-8 -28c-10 -33 -1 -49 27 -49z" />
    <glyph glyph-name="ampersand" unicode="&#x26;" horiz-adv-x="383" 
d="M78 -5c-85 0 -120 67 -94 155l45 150c26 90 70 132 145 135l-18 194l21 71h288l-25 -86h-199l26 -311l60 132h80l-126 -258l18 -177h-82l-6 68c-33 -49 -66 -73 -115 -73h-18zM104 80h10c27 0 41 17 61 56l23 39l-16 179h-7c-31 0 -46 -16 -59 -56l-48 -164
c-11 -36 1 -54 36 -54z" />
    <glyph glyph-name="paragraph" unicode="&#xb6;" horiz-adv-x="420" 
d="M62 0l87 294c-67 11 -96 67 -73 144l39 129c26 91 73 132 151 133h227l-206 -700h-83l182 614h-60l-182 -614h-82z" />
    <glyph glyph-name="section" unicode="&#xa7;" horiz-adv-x="408" 
d="M113 -5c-81 0 -118 57 -93 141l11 34h83l-14 -46c-10 -35 3 -52 33 -52h34c34 0 49 18 58 47l3 13c10 30 -1 49 -24 60l-91 44c-55 26 -60 71 -43 129l4 14c15 51 49 83 109 89c-37 21 -47 67 -36 106l3 11c23 77 72 120 148 120h39c81 0 118 -56 93 -141l-10 -31h-83
l13 44c10 35 -3 52 -33 52h-25c-34 0 -49 -19 -58 -48l-3 -13c-10 -30 2 -47 26 -60l89 -43c55 -28 59 -73 43 -129l-4 -15c-16 -50 -45 -81 -104 -91c34 -21 42 -66 31 -103l-3 -11c-23 -78 -72 -121 -148 -121h-48zM180 280h57c32 0 51 15 60 46l6 19c12 42 9 57 -19 71
l-11 5h-55c-32 0 -47 -16 -56 -47l-6 -18c-11 -39 -12 -57 12 -70z" />
    <glyph glyph-name="copyright" unicode="&#xa9;" horiz-adv-x="625" 
d="M136 -5c-109 0 -143 78 -114 172l113 383c33 113 87 155 178 155h227c109 0 142 -78 114 -172l-112 -383c-34 -113 -88 -155 -179 -155h-227zM152 51h227c45 0 83 41 100 99l113 383c22 74 -3 116 -68 116h-227c-47 0 -80 -33 -100 -99l-113 -383c-22 -74 3 -116 68 -116
zM263 105c-74 0 -107 50 -85 127l72 242c24 82 65 118 134 118h32c74 0 107 -50 84 -127l-20 -69h-76l23 78c10 33 0 49 -32 49h-17c-27 0 -40 -15 -51 -50l-74 -249c-10 -33 1 -49 33 -49h17c28 0 41 14 52 49l21 72h76l-22 -73c-24 -83 -65 -118 -134 -118h-33z" />
    <glyph glyph-name="registered" unicode="&#xae;" horiz-adv-x="329" 
d="M149 379c-54 0 -65 39 -53 81l51 173c16 55 41 72 83 72h103c54 0 66 -39 54 -81l-51 -173c-16 -55 -41 -72 -84 -72h-103zM159 410h103c18 0 32 16 40 41l50 173c10 33 0 51 -28 51h-103c-19 0 -32 -13 -41 -43l-50 -172c-10 -33 1 -50 29 -50zM162 440l61 206h58
c30 0 40 -21 32 -50l-10 -33c-6 -23 -17 -36 -31 -41l1 -82h-35l-1 78h-15l-23 -78h-37zM232 553h22c7 0 11 4 14 12l10 34c2 8 -1 13 -10 13h-19z" />
    <glyph glyph-name="trademark" unicode="&#x2122;" horiz-adv-x="434" 
d="M103 430l68 230h-51l12 40h146l-12 -40h-51l-68 -230h-44zM226 430l80 270h44l7 -153l95 153h49l-80 -270h-42l26 89l31 96h-1l-86 -140h-23l-3 140h-2l-26 -96l-26 -89h-43z" />
    <glyph glyph-name="degree" unicode="&#xb0;" horiz-adv-x="274" 
d="M232 470c-66 0 -117 51 -117 118c0 65 51 115 117 115c65 0 115 -50 115 -115c0 -67 -50 -118 -115 -118zM232 532c31 0 54 23 54 56c0 32 -22 54 -54 54c-33 0 -56 -23 -56 -54c0 -33 23 -56 56 -56z" />
    <glyph glyph-name="bar" unicode="|" horiz-adv-x="264" 
d="M112 -155v955h69v-955h-69z" />
    <glyph glyph-name="brokenbar" unicode="&#xa6;" horiz-adv-x="264" 
d="M112 368v432h69v-432h-69zM112 -155v407h69v-407h-69z" />
    <glyph glyph-name="dagger" unicode="&#x2020;" 
d="M91 0l135 458h-134l23 79h134l48 163h78l-48 -163h134l-23 -79h-134l-135 -458h-78z" />
    <glyph glyph-name="daggerdbl" unicode="&#x2021;" 
d="M91 0l48 164h-134l23 79h134l64 215h-134l23 79h134l48 163h78l-48 -163h134l-23 -79h-134l-64 -215h134l-23 -79h-134l-48 -164h-78z" />
    <glyph glyph-name="uni2116" unicode="&#x2116;" horiz-adv-x="675" 
d="M573 402c-49 0 -72 34 -57 84l43 146c15 51 41 73 84 73h40c45 0 69 -35 55 -81l-44 -148c-15 -52 -41 -74 -84 -74h-37zM-21 0l207 700h80l18 -480h5l68 249l68 231h84l-207 -700h-81l-17 481h-5l-68 -250l-68 -231h-84zM589 457h22c13 0 21 8 26 24l43 144
c5 16 -1 26 -16 26h-21c-14 0 -22 -9 -27 -24l-43 -145c-4 -16 1 -25 16 -25zM468 288l18 62h161l-18 -62h-161z" />
    <glyph glyph-name="at.case" horiz-adv-x="625" 
d="M136 -5c-109 0 -143 78 -114 172l113 383c33 113 87 155 178 155h227c109 0 142 -78 114 -172l-81 -274c-32 -109 -83 -150 -168 -150h-73v45c-27 -32 -59 -49 -87 -49h-7c-68 0 -92 53 -70 127l5 19c24 80 59 99 120 121l86 31c12 3 19 11 22 22l15 53
c10 32 1 49 -31 49h-17c-27 0 -41 -15 -52 -50l-15 -53h-71l15 50c24 82 64 118 133 118h26c74 0 107 -50 85 -127l-89 -300h25c37 0 69 34 82 82l85 286c22 74 -3 116 -68 116h-227c-47 0 -80 -33 -100 -99l-113 -383c-22 -74 3 -116 68 -116h215l-16 -56h-215zM268 175h20
c27 0 45 20 55 53l34 114l-75 -30c-34 -12 -45 -31 -54 -60l-8 -28c-10 -33 -1 -49 28 -49z" />
    <glyph glyph-name="uni02BC" unicode="&#x2bc;" horiz-adv-x="190" 
d="M107 510l57 195h99l-82 -195h-74z" />
    <glyph glyph-name="uni0326" unicode="&#x326;" horiz-adv-x="0" 
d="M-349 -155v120h80l-26 -120h-54z" />
    <glyph glyph-name="acute" unicode="&#xb4;" horiz-adv-x="420" 
d="M260 590l73 115h95l-95 -115h-73z" />
    <glyph glyph-name="breve" unicode="&#x2d8;" horiz-adv-x="420" 
d="M292 603c-60 0 -82 40 -66 95l1 7h67l-4 -16c-7 -23 0 -31 19 -31h20c17 0 25 9 32 33l4 14h67l-4 -14c-17 -63 -48 -88 -101 -88h-35z" />
    <glyph glyph-name="caron" unicode="&#x2c7;" horiz-adv-x="420" 
d="M266 590l-62 115h75l31 -66l66 66h88l-128 -115h-70z" />
    <glyph glyph-name="cedilla" unicode="&#xb8;" horiz-adv-x="420" 
d="M65 -155l26 120h54v-120h-80z" />
    <glyph glyph-name="circumflex" unicode="&#x2c6;" horiz-adv-x="420" 
d="M168 590l129 115h70l61 -115h-75l-30 67l-67 -67h-88z" />
    <glyph glyph-name="dieresis" unicode="&#xa8;" horiz-adv-x="420" 
d="M195 602l29 103h87l-29 -103h-87zM326 602l29 103h87l-29 -103h-87z" />
    <glyph glyph-name="dotaccent" unicode="&#x2d9;" horiz-adv-x="420" 
d="M258 602l29 103h93l-29 -103h-93z" />
    <glyph glyph-name="grave" unicode="`" horiz-adv-x="420" 
d="M-67 590l-71 115h91l57 -115h-77z" />
    <glyph glyph-name="hungarumlaut" unicode="&#x2dd;" horiz-adv-x="420" 
d="M186 590l73 115h95l-95 -115h-73zM312 590l73 115h95l-95 -115h-73z" />
    <glyph glyph-name="macron" unicode="&#xaf;" horiz-adv-x="420" 
d="M210 610l21 73h193l-21 -73h-193z" />
    <glyph glyph-name="ogonek" unicode="&#x2db;" horiz-adv-x="420" 
d="M132 -155v120h52l29 -120h-81z" />
    <glyph glyph-name="ring" unicode="&#x2da;" horiz-adv-x="420" 
d="M296 576c-49 0 -86 37 -86 86c0 48 37 85 86 85c47 0 84 -37 84 -85c0 -49 -37 -86 -84 -86zM296 622c22 0 39 18 39 40c0 23 -17 40 -39 40c-23 0 -41 -17 -41 -40c0 -22 18 -40 41 -40z" />
    <glyph glyph-name="tilde" unicode="&#x2dc;" horiz-adv-x="420" 
d="M195 598l17 57c11 38 29 60 59 60c18 0 29 -6 49 -19l26 -19c13 -11 17 -15 21 -15s8 3 9 9l13 44h62l-16 -58c-11 -36 -30 -59 -61 -59c-19 0 -27 5 -48 19l-30 24c-10 7 -11 9 -16 9c-4 0 -9 -4 -10 -10l-13 -42h-62z" />
    <glyph glyph-name="PariMatch" horiz-adv-x="2548" 
d="M149 373l93 327h503c77 0 112 -46 91 -121l-9 -32c-17 -59 -55 -86 -115 -86h-116l-25 -88h-422zM770 373l192 327h185v-327h-94v55h-143l-31 -55h-109zM1177 373l93 327h179c77 0 112 -45 90 -121l-8 -29c-12 -44 -36 -70 -71 -81l29 -96h-101l-27 90h-61l-25 -90h-98z
M1525 373l93 327h98l-93 -327h-98zM619 541h106l20 71h-106zM1323 541h106l19 71h-105zM955 507h98v104h-39zM329 0l93 327h424l46 -131l110 131h127l-93 -327h-98l53 187l-91 -107h-63l-34 101l-52 -181h-422zM1075 0l193 327h184v-327h-94v55h-143l-31 -55h-109zM1527 0
l66 233h-107l27 94h297l-27 -94h-92l-66 -233h-98zM1872 0c-77 0 -113 44 -91 121l35 119c17 59 54 87 115 87h158l-27 -94h-149l-40 -140h149l-27 -93h-123zM2041 0l93 327h98l-33 -117h112l33 117h98l-93 -327h-98l33 117h-112l-33 -117h-98zM1260 134h98v104h-39z" />
    </font>
</defs>
</svg>
